<svg xmlns="http://www.w3.org/2000/svg" viewBox="0 0 109.49 55.87"><defs><style>.co_ingredient_chaga_1{fill:#a44e06;}.co_ingredient_chaga_2{fill:#210b05;}.co_ingredient_chaga_3{fill:#522000;}.co_ingredient_chaga_4{fill:#391c15;}.co_ingredient_chaga_5{fill:#9d3f0d;}</style></defs><g id="Layer_2" data-name="Layer 2"><g id="Layer_1-2" data-name="Layer 1"><g id="GY58Kh.tif"><path class="co_ingredient_chaga_1" d="M83.57,49.26a.86.86,0,0,0-.29.14c-1.79,1.69-3.79,1.49-5.78.51-1.24-.61-2.44-.18-3.67-.2-1.69,0-3.39,0-5.09-.16a4.55,4.55,0,0,1-1.57-.66c-1.29-.65-2.53-1.39-3.84-2a4,4,0,0,1-2-1.53c-.61-1.05-1.73-1.29-2.74-1.62a6.07,6.07,0,0,1-2.3-1.31A14.58,14.58,0,0,0,53.93,41c-.86-.52-1.8-.93-2.6-1.53a3.73,3.73,0,0,1-1.16-4.88c.23-.5.58-.93.83-1.42A26,26,0,0,0,52.93,29a19.19,19.19,0,0,1,5.16-8.81,26,26,0,0,0,4.38-5.47,7.48,7.48,0,0,1,2-2c.93-.69,2-1.25,2.94-1.85a14,14,0,0,0,3.61-3.34,32,32,0,0,1,4-4,8.7,8.7,0,0,1,2.59-1.15A22.11,22.11,0,0,0,81.25.94,7,7,0,0,1,86.59.2c.69.12,1.35.32,2,.49a8.47,8.47,0,0,1,5,3.33c1.84,2.57,4.23,3.83,7.48,3.2a3.53,3.53,0,0,1,4,2.5,25.64,25.64,0,0,1,1.19,6.72A19.9,19.9,0,0,0,107.64,23a9.67,9.67,0,0,1,.45,2.71c0,.44-.16.7-.68.82a26.1,26.1,0,0,0-2.8.91,1.5,1.5,0,0,0-1.1,1.4c-.23,2.12-.51,4.24-.74,6.36-.1,1-.08,1.91-.21,2.85a16.14,16.14,0,0,1-2.18,6,45.62,45.62,0,0,0-2.24,4.41,2.65,2.65,0,0,1-2.65,1.78,10.61,10.61,0,0,0-3.77.8A6.88,6.88,0,0,1,83.57,49.26Z"/></g><g id="_7xtHJq.tif" data-name="7xtHJq.tif"><path class="co_ingredient_chaga_2" d="M89.61,52.64c-1.23-.48-2.48-.92-3.69-1.46a3.16,3.16,0,0,0-2.75-.11c-2,.9-4,.56-5.94,0a8.91,8.91,0,0,0-2.13-.22c-1.59-.06-3.18-.06-4.77-.12a2,2,0,0,1-.91-.26c-1.73-1-3.44-2.11-5.17-3.14-1.4-.82-2.8-1.63-4.22-2.41-1.19-.66-2.4-1.28-3.6-1.9a2.94,2.94,0,0,1-1.57-2c-.21-.83.13-1.39,1-1.46,1.26-.1,2.53-.06,3.79-.16a1.86,1.86,0,0,0,1.18-.47,6.12,6.12,0,0,1,8.27-.68,1.34,1.34,0,0,0,1.42.32c1.41-.55,2.73,0,4.05.42,1.56.52,3.13,1,4.69,1.56a2.74,2.74,0,0,0,2.7-.36c1.36-1,1.74-.87,3.09.1,1.63,1.16,3.29,2.27,5,3.37a3.42,3.42,0,0,0,3.48.34,30.12,30.12,0,0,0,4.06-2.31,5.17,5.17,0,0,0,2.17-4.51c0-1.73.1-3.47.16-5.2a1.83,1.83,0,0,1,.09-.52c.89-2.41,1.81-4.81,2.67-7.23a3.89,3.89,0,0,0,.35-2.08c-.88-3.37-.49-6.78-.49-10.19a4.11,4.11,0,0,0-2.17-3.52c-.18-.13-.49-.07-.75-.08-.6,0-1.22,0-1.81-.06a.78.78,0,0,1-.51-.56c0-.21.26-.45.41-.67,0,0,.05,0,.08,0a43.55,43.55,0,0,1,4.53-.6,3.44,3.44,0,0,1,2.94,1.76A19.34,19.34,0,0,1,108.27,17c.3,2.49.74,5,1.1,7.46.07.45.08.92.11,1.38a1.23,1.23,0,0,1-.88,1.33c-.41.15-.78.38-1.19.53a4.3,4.3,0,0,0-3.11,4.44c.15,4-1,7.72-2.12,11.46a34.23,34.23,0,0,1-1.61,4.56A9.57,9.57,0,0,1,98.64,51a4.24,4.24,0,0,1-2.15.92c-1.64.32-3.31.51-5,.75Z"/></g><g id="KV0uOE.tif"><path class="co_ingredient_chaga_3" d="M52.12,55.83a21.42,21.42,0,0,1-6.72-1.2,11,11,0,0,0-4.67-.84,6.1,6.1,0,0,1-4.35-1.39c-1.9-1.55-4.23-1.8-6.56-1.9a9,9,0,0,1-4.65-1.17,3.43,3.43,0,0,0-3-.15A31.89,31.89,0,0,1,19,50.31a24.16,24.16,0,0,1-3.6.49c-1.18.11-2.37.07-3.55.17a4.19,4.19,0,0,1-2.74-.56c-.93-.6-1.92-1.08-2.86-1.66a4.84,4.84,0,0,1-2.13-5.22A7,7,0,0,1,6,39.9a1.28,1.28,0,0,0,.26-1.82,5.27,5.27,0,0,1,.78-5.74A23.71,23.71,0,0,0,8.89,30c.25-.36.09-.63-.2-1a7,7,0,0,0-3.48-2.66c-.66-.21-.78-1-.59-1.74s.53-1.41.31-1.91-1-.68-1.65-.91C.31,20.54-.15,17.76,0,15.42a2.28,2.28,0,0,1,1.58-2A1.35,1.35,0,0,0,2.6,12a2.49,2.49,0,0,1,1.76-2.6A2.94,2.94,0,0,0,6,7.92a3.57,3.57,0,0,1,4.56-1.65c2.14.71,4.26.22,6.38.19A1,1,0,0,0,17.66,6C19.05,4,21,3.83,23.15,4.28a17,17,0,0,1,4.9,1.36,6.8,6.8,0,0,0,2.47.29h.17a7.23,7.23,0,0,0,5.86-.4,2.29,2.29,0,0,1,1.2-.06c2.18.22,4.34.69,6.55.14,1.1-.27,1.8.52,2.4,1.27A4,4,0,0,0,49,8.51c1.09.27,1.65,1.29,2.24,2.2a5.67,5.67,0,0,0,1,1c.85.73,1.77,1.4,2.57,2.19,1.73,1.7,3.47,3.41,5.08,5.22a9.11,9.11,0,0,0,4.51,2.7,5.15,5.15,0,0,1,3.5,6.73,17.55,17.55,0,0,0-.57,3.2c-.28,1.44-.61,2.88-.9,4.32s-.52,2.78-.81,4.16a3.33,3.33,0,0,1-.49,1.45,11.23,11.23,0,0,0-2,4.33,12.58,12.58,0,0,1-4,5.7c-1,.86-2,1.73-3,2.64A4.73,4.73,0,0,1,52.12,55.83Z"/></g><g id="_7Qzpv6.tif" data-name="7Qzpv6.tif"><path class="co_ingredient_chaga_4" d="M58.94,36.37c-.15.2-.28.49-.49.58s-.46-.21-.55-.4a29.27,29.27,0,0,0-6.73-8.36,3.11,3.11,0,0,1-.73-.85.87.87,0,0,1,0-.78c.13-.16.51-.17.77-.16a1.11,1.11,0,0,1,.54.27,23.27,23.27,0,0,1,6.85,8.54C58.71,35.54,58.79,35.92,58.94,36.37Z"/><path class="co_ingredient_chaga_4" d="M16.7,24.18a6,6,0,0,1-1.63-.79,26.91,26.91,0,0,1-2.38-2.84c-.82-1.12-1.56-2.29-2.34-3.44a5.85,5.85,0,0,1-.65-1,2.33,2.33,0,0,1,0-.87c.32,0,.76-.07.93.1a30.9,30.9,0,0,1,3.07,3.41c1.08,1.5,1.86,3.21,3.52,4.22a.81.81,0,0,1,.2.75C17.36,23.9,17,24,16.7,24.18Z"/><path class="co_ingredient_chaga_4" d="M47.36,45.67c-.13.19-.22.47-.38.52a1.65,1.65,0,0,1-.7-.14.11.11,0,0,1-.06-.07c-1-2.11-3-3.38-4.5-5.13A5.9,5.9,0,0,1,41,39.69a.69.69,0,0,1,.1-.61.66.66,0,0,1,.62,0,19,19,0,0,1,5.07,5A10.14,10.14,0,0,1,47.36,45.67Z"/><path class="co_ingredient_chaga_4" d="M14.79,32.42a1.33,1.33,0,0,1,.08-.51,4.35,4.35,0,0,1,.57-.65c.21.19.54.35.62.59.25.74.36,1.52.61,2.26s.73,1.69,1.06,2.55c.1.27.15.74,0,.85a1,1,0,0,1-.92.14,1.87,1.87,0,0,1-.87-.91c-.51-1.4-.93-2.83-1.38-4.25Z"/><path class="co_ingredient_chaga_4" d="M51.11,44.06l-.63.64a2.81,2.81,0,0,1-.53-.62c-.4-.92-.79-1.86-1.12-2.81a5.6,5.6,0,0,1-.29-1.52c0-.19.22-.56.36-.57s.65.12.71.29C50.13,40.94,50.59,42.43,51.11,44.06Z"/><path class="co_ingredient_chaga_4" d="M14.88,13.23l.63-.92a4,4,0,0,1,.72.82c.4.88.73,1.79,1.07,2.7.06.17.08.46,0,.56s-.46.25-.58.18a2.24,2.24,0,0,1-.95-.81A24.83,24.83,0,0,1,14.88,13.23Z"/><path class="co_ingredient_chaga_4" d="M34.88,39.14c.07,0,.24.06.32.16.71.9,1.43,1.8,2.09,2.73a.51.51,0,0,1-.8.63,22.69,22.69,0,0,1-2.1-2.4A.66.66,0,0,1,34.88,39.14Z"/><path class="co_ingredient_chaga_4" d="M52.93,20.75c0,.06-.12.33-.28.4a.65.65,0,0,1-.63-.08,26.63,26.63,0,0,1-2-2.51c-.29-.43.11-.86.63-.77A4.27,4.27,0,0,1,52.93,20.75Z"/><path class="co_ingredient_chaga_4" d="M40.29,31.32c.31.13.48.15.57.24a22.76,22.76,0,0,1,1.66,1.88c.14.18,0,.57,0,.87-.3,0-.73.1-.86-.05a18.2,18.2,0,0,1-1.61-2.17C40,32,40.2,31.61,40.29,31.32Z"/><path class="co_ingredient_chaga_4" d="M48.77,29.35c.91,0,2.34,1.56,2.19,2.13-.05.19-.59.47-.65.41a15.47,15.47,0,0,1-1.83-1.79C48.39,30,48.69,29.54,48.77,29.35Z"/><path class="co_ingredient_chaga_4" d="M12.6,40.23c-.31.35-.5.76-.74.8-.58.08-.74-.42-.65-.86A5,5,0,0,1,11.77,39Z"/></g><path class="co_ingredient_chaga_5" d="M88.55,13.25a9.55,9.55,0,0,1,1.61,4.89,1.48,1.48,0,0,1-.92,1.69c-.52.19-.95-.13-.8-.61.51-1.56-.21-2.89-.75-4.24-.34-.83-.8-1.61-1.14-2.43-.09-.22,0-.53.06-.8.29.05.68,0,.85.16A11.8,11.8,0,0,1,88.55,13.25Z"/><path class="co_ingredient_chaga_5" d="M78.15,12.1a17.27,17.27,0,0,1,.92,1.78c.08.23-.08.56-.13.84-.25-.07-.61-.05-.74-.22-1.64-2-3.25-4-4.82-6-.18-.23,0-.7-.07-1.07.36.1.83.07,1,.3C75.7,9.21,77,10.76,78.15,12.1Z"/><path class="co_ingredient_chaga_5" d="M74.19,16.1A15.39,15.39,0,0,0,77.62,21c.16.16.13.5.19.76-.29.06-.68.26-.85.15a9,9,0,0,1-2.22-1.75A17.34,17.34,0,0,1,73,16.79c-.1-.24.23-.67.37-1Z"/><path class="co_ingredient_chaga_5" d="M74.33,20.5c.4.7.73,1.21,1,1.75a.76.76,0,0,1,0,.68.67.67,0,0,1-.68.08,5.47,5.47,0,0,1-1.28-1.11,10.19,10.19,0,0,1-1.11-1.85c-.11-.24.05-.61.08-.91.31.05.71,0,.92.17A10,10,0,0,1,74.33,20.5Z"/><path class="co_ingredient_chaga_5" d="M84.2,14.4a12.82,12.82,0,0,1,1,1.53c.12.25,0,.62,0,.94-.35-.05-.87,0-1-.15a35.31,35.31,0,0,1-1.9-3.25c-.09-.16.15-.59.35-.75s.53.12.68.3a16.28,16.28,0,0,1,.93,1.36Z"/><path class="co_ingredient_chaga_5" d="M81.07,31.27c0,.2.14.54,0,.72a.86.86,0,0,1-.72.28,18.85,18.85,0,0,1-2.67-.74c-.27-.11-.41-.6-.61-.91.33-.17.66-.51,1-.5A3.89,3.89,0,0,1,81.07,31.27Z"/><path class="co_ingredient_chaga_5" d="M81.93,25c0,.46.07,1-.12,1.13a1.11,1.11,0,0,1-1.06.06,13,13,0,0,1-1.93-1.7c-.17-.18-.07-.62-.1-.94.3,0,.66-.16.88,0C80.37,24,81.09,24.48,81.93,25Z"/><path class="co_ingredient_chaga_5" d="M83.37,36.49l-1.12-.1a3.37,3.37,0,0,1,.4-1.09,11.31,11.31,0,0,1,1.54-1.39,1.77,1.77,0,0,1,.66-.21c0,.26.21.6.11.76C84.51,35.12,84,35.73,83.37,36.49Z"/><path class="co_ingredient_chaga_5" d="M84.19,9.77v.76c-.29,0-.66.09-.85-.06A8.43,8.43,0,0,1,82,9.14c-.13-.16-.1-.45-.13-.68.24,0,.56-.13.71,0C83.13,8.82,83.61,9.28,84.19,9.77Z"/><path class="co_ingredient_chaga_5" d="M75.8,36.59c-.65.41-2.23.06-2.41-.48-.07-.21.32-.81.39-.79a11,11,0,0,1,1.93.66C75.82,36,75.78,36.43,75.8,36.59Z"/><path class="co_ingredient_chaga_4" d="M27.1,17.89l1.32.75c1.27.76,2.56,1.49,3.8,2.29a10.92,10.92,0,0,1,4.28,5.34,6,6,0,0,1,.27,1.79.72.72,0,0,1-.39.57.78.78,0,0,1-.63-.29,6.61,6.61,0,0,1-.58-1.16,11.2,11.2,0,0,0-4.94-5.76,10.35,10.35,0,0,1-1.95-1.3,14.73,14.73,0,0,1-1.44-1.78Z"/><path class="co_ingredient_chaga_4" d="M43.72,20.32a6,6,0,0,1-.92-.4,33.1,33.1,0,0,1-3.54-2.75,33.74,33.74,0,0,1-3.08-3.85c-.17-.22,0-.69,0-1.05.36.11.82.11,1.05.34.84.84,1.55,1.8,2.39,2.64,1.18,1.18,2.43,2.29,3.65,3.44.25.23.59.44.7.73S43.83,20,43.72,20.32Z"/><path class="co_ingredient_chaga_5" d="M86.68,28.09a8.06,8.06,0,0,1,1,.53c2,1.52,4.08,3.06,6.12,4.59.11.08.27.18.3.29a7.66,7.66,0,0,1,.14,1c-.29,0-.65.15-.87,0A48.4,48.4,0,0,1,89,31.82a22.89,22.89,0,0,1-2.79-2.61,1,1,0,0,1-.14-.78C86.13,28.3,86.45,28.22,86.68,28.09Z"/><path class="co_ingredient_chaga_4" d="M24.51,37.75c.15.12.35.27.53.43.79.75,1.61,1.48,2.36,2.27s1.63,1.78,2.37,2.73c.16.2,0,.65,0,1a3.32,3.32,0,0,1-.85-.4c-1-.9-2.07-1.81-3.05-2.79A16.51,16.51,0,0,1,24,38.76C23.74,38.42,23.78,37.9,24.51,37.75Z"/><path class="co_ingredient_chaga_5" d="M95,14.35c0-.54.48-.79.88-.41a14.26,14.26,0,0,1,1.67,2c.25.37.09.76-.44.76S95,15,95,14.35Z"/><path class="co_ingredient_chaga_5" d="M84.64,22.4c.79,0,1.73.83,1.66,1.33a.85.85,0,0,1-.58.54c-.58.06-1.66-.84-1.55-1.28C84.23,22.73,84.54,22.52,84.64,22.4Z"/></g></g></svg>