<svg xmlns="http://www.w3.org/2000/svg" viewBox="0 0 105.81 64.12"><defs><style>.co_ingredient_maca_1{fill:#f5be49;}.co_ingredient_maca_2{fill:#c8911e;}.co_ingredient_maca_3{fill:#9f6f20;}</style></defs><g id="Layer_2" data-name="Layer 2"><g id="Layer_1-2" data-name="Layer 1"><g id="dIosXI.tif"><path class="co_ingredient_maca_1" d="M49.42,15.67a16.44,16.44,0,0,1-2,9c-1,2-2,4-3,6a9.56,9.56,0,0,0-1.09,4.65,6.73,6.73,0,0,0,.37,1.94,15.3,15.3,0,0,0,3.7,5.53c1.68,1.59,3.4,3.14,5,4.78.86.86,1.58,1.87,2.37,2.81a17.46,17.46,0,0,0,2,2.28,4,4,0,0,0,2,.81c2.64.31,5.11,1.28,7.67,1.86s5.33,1.08,8,1.59c2.18.41,4.35.82,6.54,1.14,1.57.22,3.17.24,4.74.45a50.89,50.89,0,0,1,9.52,2.09c1.4.47,2.92.55,4.35.94,1.84.5,3.64,1.13,5.44,1.74.3.1.78.24.58.67-.08.18-.59.29-.87.23-1.19-.26-2.39-.54-3.56-.9a54.7,54.7,0,0,0-10.18-2.44,113.06,113.06,0,0,1-12.78-2.22c-2.32-.55-4.75-.6-7.12-.95-1.51-.22-3-.57-4.5-.87a17,17,0,0,0-7.37.07,7.83,7.83,0,0,1-6.58-1.6c-1.67-1.18-3.3-2.43-4.92-3.68-1.26-1-2.46-2-3.73-3a21.6,21.6,0,0,0-1.95-1.08c-1.08-.65-2.15-1.33-3.22-2a6.88,6.88,0,0,0-.76-.48c-1.53-.66-3-1.38-4.62-1.91a8,8,0,0,0-4.17-.3c-.94.21-1.92.29-2.84.55a22.25,22.25,0,0,0-3.95,1.29A11.22,11.22,0,0,1,17,45.78,20.33,20.33,0,0,1,7.27,43.2,14.43,14.43,0,0,1,0,30.31a10.9,10.9,0,0,1,1.76-5.58A18.89,18.89,0,0,1,7.4,18.67a87.06,87.06,0,0,1,11.25-6.92c1-.47,2-.77,2.91-1.31a49.35,49.35,0,0,0,4.67-3,38.21,38.21,0,0,1,8-4.74A11.55,11.55,0,0,1,41,1.78a1.92,1.92,0,0,1,.89.33c2,1.77,4.27,3.35,5.72,5.75a13.57,13.57,0,0,1,1.78,6.8C49.43,15,49.42,15.26,49.42,15.67Z"/><path class="co_ingredient_maca_1" d="M50.2,20.57a16.54,16.54,0,0,1,2.89-9.5,24.38,24.38,0,0,1,9.85-8.51,26,26,0,0,1,7.37-2A21.73,21.73,0,0,1,73.14,0a12.43,12.43,0,0,1,3.28.25,17.37,17.37,0,0,1,6.19,2.89A28.38,28.38,0,0,1,87,6.66a21.06,21.06,0,0,1,4.61,8.05c.51,1.53.89,3.09,1.35,4.63a12,12,0,0,1,.28,4,34.06,34.06,0,0,1-1,7.52,16.58,16.58,0,0,1-2.78,5.86A9.8,9.8,0,0,1,84,40.44c-3.43.87-6.84,1.85-10.29,2.62A14.86,14.86,0,0,1,61.41,40.7c-.77-.54-1.52-1.13-2.24-1.74-1.37-1.19-2.7-2.42-4.06-3.62a9.37,9.37,0,0,1-2.68-4,35.82,35.82,0,0,1-2.09-8.59C50.28,22.06,50.25,21.32,50.2,20.57Z"/></g><g id="iAJSmf.tif"><path class="co_ingredient_maca_2" d="M91.93,23.84c-.14,1-.27,1.85-.4,2.72-.23,1.59-1.31,2.63-2.36,3.69a11.74,11.74,0,0,1-5,3.09c-1.15.35-2.25.87-3.38,1.27a11.31,11.31,0,0,1-4.7.54,20.45,20.45,0,0,1-5.44-1,8.13,8.13,0,0,1-4.11-3.12,14.3,14.3,0,0,1-2.4-5.35,9.87,9.87,0,0,1,0-3.83,18.14,18.14,0,0,1,3.2-7.48q1.68-2.13,3.45-4.19a4.7,4.7,0,0,1,3.3-1.69,8.17,8.17,0,0,0,1.48-.25A9,9,0,0,1,81.81,9,13.48,13.48,0,0,1,87,12.64c1.85,2.29,3.79,4.57,4.38,7.6C91.6,21.45,91.75,22.69,91.93,23.84Z"/><path class="co_ingredient_maca_2" d="M14.7,40.72a5.38,5.38,0,0,1,.28-.9,18.09,18.09,0,0,1,6.39-7.6,2.18,2.18,0,0,1,.79-.13c-.12.25-.18.58-.37.73a21.32,21.32,0,0,0-5.36,6.76,13.75,13.75,0,0,1-.75,1.3.73.73,0,0,1-.57.3C15,41.15,14.83,40.87,14.7,40.72Z"/><path class="co_ingredient_maca_2" d="M24,40.47a8.64,8.64,0,0,1,.36-1,15.51,15.51,0,0,1,5.75-6.19c.17-.11.49,0,.74,0-.07.25-.06.57-.22.73-.54.53-1.16,1-1.72,1.51a17.14,17.14,0,0,0-3.33,4.33,4.79,4.79,0,0,1-.57.91.77.77,0,0,1-.6.25C24.2,40.93,24.1,40.64,24,40.47Z"/><path class="co_ingredient_maca_2" d="M41.4,30.5a1.75,1.75,0,0,1,.48.07,5.45,5.45,0,0,1,.47.37,1.9,1.9,0,0,1-.45.31c-1,.38-2.1.7-3.12,1.12a6.53,6.53,0,0,0-3,2.37c-.22.35-.56.79-1,.47s-.12-.76.1-1.11A6.58,6.58,0,0,1,37.05,32,12.79,12.79,0,0,1,41.4,30.5Z"/><path class="co_ingredient_maca_2" d="M46.22,17.36a16,16,0,0,1-1,2.05,10.76,10.76,0,0,1-3.12,2.81c-.29.2-.71.32-.89-.07a1,1,0,0,1,.28-.8c.56-.49,1.2-.88,1.78-1.35a5.51,5.51,0,0,0,2.1-3c0-.14.26-.24.39-.35Z"/><path class="co_ingredient_maca_2" d="M57.26,11.79a6.47,6.47,0,0,1,.24-.74A10.32,10.32,0,0,1,61,7.34c.11-.08.32,0,.48,0,0,.17,0,.4-.09.52-.33.4-.74.75-1.06,1.16-.61.79-1.19,1.61-1.77,2.42a3.48,3.48,0,0,1-.4.6.74.74,0,0,1-.55.21C57.44,12.2,57.36,11.94,57.26,11.79Z"/><path class="co_ingredient_maca_2" d="M15.07,14c-.07.15-.11.38-.21.42s-.44,0-.49-.1c-.16-.32.19-1,.51-1.12a1.34,1.34,0,0,0,.45-.34c.2-.2.33-.46.54-.64s.55-.44.85,0c.08.12.31.13.49.19a10.94,10.94,0,0,1,.5-1.21c.1-.17.34-.27.52-.39.06.21.21.45.17.64a7.92,7.92,0,0,1-.51,1.41c-.18.39-.47.39-.68.15l-.64.63-.25-.46-1.1.91Z"/><path class="co_ingredient_maca_2" d="M43.32,34.7l-.48.25c-1.08.58-2.15,1.18-3.26,1.72-.23.12-.57,0-.86,0,.11-.29.14-.75.34-.85,1.14-.6,2.31-1.12,3.49-1.62.16-.07.44.11.67.18Z"/><path class="co_ingredient_maca_2" d="M25,32.77c.4,0,.55.31.33.64-.48.72-1,1.43-1.49,2.11a.72.72,0,0,1-.6.23c-.16,0-.25-.34-.35-.54s0-.24-.11-.34-.41-.44-.36-.54a1.66,1.66,0,0,1,.62-.76c.56-.3,1.17-.5,1.77-.75A1.08,1.08,0,0,1,25,32.77Z"/><path class="co_ingredient_maca_2" d="M74.29,2c.26.08.42.11.56.17.9.41,1.8.81,2.68,1.24a3,3,0,0,1,.82.6,1.94,1.94,0,0,1,.26.66,2,2,0,0,1-.69,0c-1.06-.46-2.12-1-3.18-1.42-.18-.09-.41-.09-.56-.21s-.4-.39-.38-.56S74.14,2.07,74.29,2Z"/><path class="co_ingredient_maca_2" d="M20.56,15.7a10.72,10.72,0,0,1,1.07.6A7.52,7.52,0,0,1,24,19.09c.1.19,0,.47,0,.7a2,2,0,0,1-.61-.35,10.93,10.93,0,0,0-2.94-2.81c-.18-.11-.25-.44-.33-.68A2.15,2.15,0,0,1,20.56,15.7Z"/><path class="co_ingredient_maca_2" d="M35.8,21.63c-1.55-.3-3-.56-4.41-.86-.15,0-.27-.24-.4-.37.17-.13.33-.36.49-.36a11.48,11.48,0,0,1,4.34.8.67.67,0,0,1,.31.5C36.14,21.44,35.88,21.57,35.8,21.63Z"/><path class="co_ingredient_maca_2" d="M27.94,15.81c-.09.12-.15.29-.24.31a.55.55,0,0,1-.44-.1,8.82,8.82,0,0,0-2.86-1.84,1,1,0,0,1-.43-.32.66.66,0,0,1-.07-.54.53.53,0,0,1,.5-.17,8.55,8.55,0,0,1,3.24,2.11A3.16,3.16,0,0,1,27.94,15.81Z"/><path class="co_ingredient_maca_2" d="M5.36,30.09A5.56,5.56,0,0,1,7,26.92a.61.61,0,0,1,.53-.05c.08,0,.13.34.07.47-.43,1-.89,2-1.37,3-.07.14-.43.31-.51.25A1.43,1.43,0,0,1,5.36,30.09Z"/><path class="co_ingredient_maca_2" d="M66.67,33.54c.07.05.25.1.28.2a.53.53,0,0,1,0,.43c-.92.77-1.84,1.53-2.79,2.26a.61.61,0,0,1-.58-.08.63.63,0,0,1,0-.58c1-.75,2-1.46,2.93-2.18A1.18,1.18,0,0,1,66.67,33.54Z"/><path class="co_ingredient_maca_2" d="M35.5,41c-.48,0-.76-.39-.46-.66a28.58,28.58,0,0,1,2.54-2c.08,0,.35.06.45.17A.42.42,0,0,1,38,39c-.72.67-1.47,1.31-2.22,1.94A.69.69,0,0,1,35.5,41Z"/><path class="co_ingredient_maca_2" d="M81.43,4.61c-.23,0-.49.13-.62,0A4.77,4.77,0,0,1,80.16,4a12.55,12.55,0,0,1-1.07-1.12,2.36,2.36,0,0,1-.21-.78c.27,0,.66-.09.78,0,.59.68,1.12,1.43,1.66,2.17C81.36,4.32,81.36,4.39,81.43,4.61Z"/><path class="co_ingredient_maca_2" d="M61.1,20.83a10.6,10.6,0,0,1,1.26,0c.15,0,.29.19.43.3-.11.14-.22.41-.33.41-.92,0-1.84,0-2.75,0-.14,0-.27-.29-.41-.44.18-.13.34-.35.53-.37a9,9,0,0,1,1.27,0Z"/><path class="co_ingredient_maca_2" d="M46,41.92a1.27,1.27,0,0,1-.22.33c-.6.51-1.19,1-1.83,1.48-.18.13-.53,0-.8.05.07-.26.06-.64.24-.78a17.36,17.36,0,0,1,1.88-1.29C45.49,41.54,45.8,41.48,46,41.92Z"/><path class="co_ingredient_maca_2" d="M44.42,27.13a1.84,1.84,0,0,1,.38.46.49.49,0,0,1-.49.69,1.5,1.5,0,0,1-1-1.18,2.08,2.08,0,0,1,1.27-1.33c.37,0,.48.18.31.5S44.6,26.83,44.42,27.13Z"/><path class="co_ingredient_maca_2" d="M42.37,11.42c.12-.4.22-.82.37-1.21.06-.14.27-.33.37-.31s.4.23.4.35a8.49,8.49,0,0,1-.12,1.82c0,.19-.43.3-.66.44a5.17,5.17,0,0,1-.28-.64,1.47,1.47,0,0,1,0-.42Z"/><path class="co_ingredient_maca_2" d="M19.86,11.29c-.15.31-.64.42-.53.89,0,0-.26.13-.29.09s-.37-.37-.36-.55a1.88,1.88,0,0,1,.32-.84.81.81,0,0,1,1.15-.34c.3.15.63.27.92.44.11.07.16.25.23.38-.15.06-.31.2-.45.18A8,8,0,0,1,19.86,11.29Z"/><path class="co_ingredient_maca_2" d="M34.62,36.91c-.54.59-1,1.22-1.63,1.75-.23.21-.68-.21-.5-.47A15.55,15.55,0,0,1,34,36.47c0-.06.34.11.53.17Z"/><path class="co_ingredient_maca_2" d="M16.71,27.39c0,.41-1.16,1.43-1.43,1.25a1.26,1.26,0,0,1-.53-.87c.07-.61,1.34-1,1.83-.58A.61.61,0,0,1,16.71,27.39Z"/><path class="co_ingredient_maca_2" d="M51.55,47.15c0,.21,0,.26,0,.28-.53.45-1,.91-1.61,1.32-.07.06-.39,0-.44-.16a.6.6,0,0,1,0-.54,5.8,5.8,0,0,1,1.22-1C50.88,46.89,51.26,47.09,51.55,47.15Z"/><path class="co_ingredient_maca_2" d="M13.67,38.25c-.05-.15-.24-.49-.16-.57a11.2,11.2,0,0,1,1.36-1.21c.06,0,.47.18.48.3C15.41,37.26,14.35,38.26,13.67,38.25Z"/><path class="co_ingredient_maca_2" d="M32.34,17c.22.14.43.2.48.32s-.08.33-.2.42a7.45,7.45,0,0,1-1.24.83.72.72,0,0,1-.66-.11.69.69,0,0,1,.09-.67A15.75,15.75,0,0,1,32.34,17Z"/><path class="co_ingredient_maca_2" d="M55.24,54.39c.42-.56.8-1.11,1.22-1.62.06-.08.31-.06.43,0s.1.27.06.37a11.56,11.56,0,0,1-.71,1.51.73.73,0,0,1-.57.26C55.55,54.9,55.44,54.64,55.24,54.39Z"/><path class="co_ingredient_maca_2" d="M86.73,7a11.78,11.78,0,0,1-.62,1.54c-.08.14-.46.12-.71.17a5.6,5.6,0,0,1,.12-.59c.13-.42.25-.84.41-1.25a5.43,5.43,0,0,1,.42-.68Z"/><path class="co_ingredient_maca_2" d="M16.26,29.18c-.05-.2-.2-.51-.14-.57.51-.44,1.05-.85,1.6-1.24,0,0,.22.2.34.3l-1.55,1.56Z"/><path class="co_ingredient_maca_2" d="M5.34,32.35a7.33,7.33,0,0,1-.53,1.2c-.23.34-.56.27-.73-.1s.22-1.49.74-1.56C5,31.88,5.15,32.18,5.34,32.35Z"/><path class="co_ingredient_maca_2" d="M24.67,16.84c-.45-.24-.92-.46-1.35-.74-.15-.09-.19-.34-.28-.52.2,0,.44-.17.58-.1a5.24,5.24,0,0,1,1,.71c.13.12.13.37.19.56Z"/><path class="co_ingredient_maca_2" d="M15.27,29.63c0,.48-1.09,1.36-1.43,1.24-.1,0-.22-.38-.18-.41a11.28,11.28,0,0,1,1.22-1C15,29.43,15.17,29.59,15.27,29.63Z"/><path class="co_ingredient_maca_2" d="M39.15,10.22c-.22-.14-.39-.19-.42-.29a.51.51,0,0,1,0-.44,5.55,5.55,0,0,1,1-.74c.25-.13.57.07.42.33A8.18,8.18,0,0,1,39.15,10.22Z"/><path class="co_ingredient_maca_2" d="M60.67,24.78l-.54-.34a2,2,0,0,1,.52-.38,2.36,2.36,0,0,1,.82-.17.32.32,0,0,1,.18.6A6.4,6.4,0,0,1,60.67,24.78Z"/><path class="co_ingredient_maca_2" d="M46.7,43.93A1.75,1.75,0,0,1,45.43,45a.47.47,0,0,1-.27-.18s0-.2.08-.26c.31-.27.63-.55,1-.8a.54.54,0,0,1,.38-.05C46.65,43.74,46.68,43.88,46.7,43.93Z"/><path class="co_ingredient_maca_2" d="M14.5,26l.4.47c-.36.27-.72.55-1.1.8,0,0-.21-.16-.32-.24Z"/><path class="co_ingredient_maca_2" d="M16.54,35.11c-.21-.31-.43-.49-.42-.65,0-.54.53-.45.87-.5.12,0,.27.2.41.31Z"/><path class="co_ingredient_maca_2" d="M23.18,38.4l-.95.86c-.1-.14-.29-.27-.31-.42,0-.38.46-.89.79-.82C22.84,38.05,23,38.21,23.18,38.4Z"/><path class="co_ingredient_maca_2" d="M52,48.91a10.72,10.72,0,0,1-.92.77,3.88,3.88,0,0,1-.38-.42c.28-.25.56-.5.86-.73A3.11,3.11,0,0,1,52,48.91Z"/><path class="co_ingredient_maca_2" d="M30.06,22.09l.71.65c-.14.13-.34.41-.41.38a7,7,0,0,1-.9-.55Z"/><path class="co_ingredient_maca_2" d="M71.23,3.06l.53.54A3,3,0,0,1,71,4c-.16,0-.38-.2-.57-.31Z"/><path class="co_ingredient_maca_2" d="M21.9,11c-.38-.12-.71-.2-1-.33a.36.36,0,0,1-.15-.33.38.38,0,0,1,.32-.16,4.3,4.3,0,0,1,.92.24c.12,0,.2.2.3.31Z"/><path class="co_ingredient_maca_2" d="M82.48,3.94c.42,0,1,.9.81,1.17a.46.46,0,0,1-.34.11,11.33,11.33,0,0,1-.67-1S82.43,4,82.48,3.94Z"/><path class="co_ingredient_maca_2" d="M43.81,24.48c-.2-.31-.39-.5-.36-.55a6.8,6.8,0,0,1,.64-.78c.1.11.33.27.3.33A9.32,9.32,0,0,1,43.81,24.48Z"/><path class="co_ingredient_maca_2" d="M41.85,11.83l-.67.68c-.13-.14-.39-.33-.36-.42a3.32,3.32,0,0,1,.46-.69Z"/><path class="co_ingredient_maca_2" d="M34.57,40.39a3.14,3.14,0,0,1-.81.49c-.12,0-.3-.23-.45-.36.18-.18.33-.43.54-.51S34.2,40.18,34.57,40.39Z"/><path class="co_ingredient_maca_2" d="M88.09,7.92a5.82,5.82,0,0,1-.73.54S87,8.17,87,8.15c.17-.24.37-.47.57-.7Z"/><path class="co_ingredient_maca_2" d="M60.77,27.47c-.23-.27-.42-.45-.4-.48.2-.28.43-.55.65-.82.1.13.3.3.27.38A6.23,6.23,0,0,1,60.77,27.47Z"/><path class="co_ingredient_maca_2" d="M29.19,18.75c.21.31.47.54.42.65a.8.8,0,0,1-.54.4c-.08,0-.36-.29-.34-.42S29,19,29.19,18.75Z"/><path class="co_ingredient_maca_2" d="M17.19,33.44c-.2-.21-.44-.39-.41-.46s.25-.38.39-.39.34.18.51.29Z"/><path class="co_ingredient_maca_2" d="M62.91,33.71l-.47-.49c.16-.1.33-.3.48-.29s.32.2.48.31Z"/></g><g id="S6hbzy.tif"><path class="co_ingredient_maca_3" d="M87.29,23.67c-.75-2.24-.13-5.05.68-1.24C88.54,24.16,86.85,26.71,87.29,23.67Z"/><path class="co_ingredient_maca_3" d="M72,18.16c1,.29-.36,3-1,3.38C70.23,20.74,72.2,14.61,72,18.16Z"/><path class="co_ingredient_maca_3" d="M72.86,22.05c.42-1,.09-2.78,1.37-3C74.57,20.13,73.61,25,72.86,22.05Z"/><path class="co_ingredient_maca_3" d="M80.81,21.56c1.41,3.36-2.24,5.71-.56.27C80.13,21.38,80.56,21.32,80.81,21.56Z"/><path class="co_ingredient_maca_3" d="M69.78,20.07c-.21-1.41.18-3.6,1.37-4.29C71.5,16.57,69.84,21.15,69.78,20.07Z"/><path class="co_ingredient_maca_3" d="M86,22c-.41,2.71-1.51-2.39-1.4-3.22C85.67,19.08,85.88,21.15,86,22Z"/><path class="co_ingredient_maca_3" d="M76.06,15.76c.13-.93,2-2.75,2.92-1.87C78.54,14.52,76.75,16.62,76.06,15.76Z"/><path class="co_ingredient_maca_3" d="M81.9,12.74c.86,0,2.59,1.22,2.21,2.1C83.46,15.07,81,13.27,81.9,12.74Z"/><path class="co_ingredient_maca_3" d="M83.13,22.72c-.22,2-1.73-2.07-1.51-2.66C82.74,20.21,82.91,21.88,83.13,22.72Z"/><path class="co_ingredient_maca_3" d="M85.87,27.17c0,1-2.73,3.07-2.24,1.45C84.45,28.42,85.24,26,85.87,27.17Z"/><path class="co_ingredient_maca_3" d="M77.68,30.15c-1.88-.48,1.23-1.31,1.75-1.76C80,29.32,78.55,30.14,77.68,30.15Z"/><path class="co_ingredient_maca_3" d="M76.57,31.46c-.6-.23-1.21-.43-1.8-.68C73.67,29.37,79.2,30.75,76.57,31.46Z"/><path class="co_ingredient_maca_3" d="M78.54,16.75c.76.34,1.83,1.13,1.62,2C79.51,18.67,77.47,17.32,78.54,16.75Z"/><path class="co_ingredient_maca_3" d="M81,16.4c.66.15,2.76,1.94,1.21,1.84C81.83,17.78,80,16.9,81,16.4Z"/><path class="co_ingredient_maca_3" d="M78.76,19.48c-.16.25-.55.49-.78.16C79,16.63,81.3,23,78.76,19.48Z"/><path class="co_ingredient_maca_3" d="M82.34,14.87c.82.29,2,1.47,1.6,2.32C83.36,17,81.7,15.42,82.34,14.87Z"/><path class="co_ingredient_maca_3" d="M76.86,22.67c.4-.68.37-1.54,1.17-1.72C78.44,21.7,77.67,24.42,76.86,22.67Z"/><path class="co_ingredient_maca_3" d="M72,25.37c.51-1.35,1.83.91,1.48,1.45C72.6,27.07,72.46,25.89,72,25.37Z"/><path class="co_ingredient_maca_3" d="M69.43,23.45c0,.46.07,1.84-.64,1.12C68.11,23.26,69.53,20.76,69.43,23.45Z"/><path class="co_ingredient_maca_3" d="M86.1,18.21c-.6,1.05-1.19-.92-1.51-1.37C84.76,15.5,86.09,17.52,86.1,18.21Z"/><path class="co_ingredient_maca_3" d="M82,27.64c-1.41,0,.74-1.59,1.34-1.53A1.3,1.3,0,0,1,82,27.64Z"/><path class="co_ingredient_maca_3" d="M69.77,26.12c.54-1.36,1.59,1,1,1.43C70,27.64,70,26.67,69.77,26.12Z"/><path class="co_ingredient_maca_3" d="M69,8.86c-.25.48-2.15,2.16-1.82.83C67.59,9.39,68.73,7.84,69,8.86Z"/><path class="co_ingredient_maca_3" d="M74.85,29.17c-.66,0-1.65-.69-1.22-1.3C74.17,27.61,75.77,28.67,74.85,29.17Z"/><path class="co_ingredient_maca_3" d="M78.63,27.44c-.8-.34.88-1.54,1.33-1.48C80.31,26.57,79.25,27.42,78.63,27.44Z"/><path class="co_ingredient_maca_3" d="M70.65,29.33c-.42-.27-1.29-.91-1.07-1.48C70.09,27.59,71.75,29.15,70.65,29.33Z"/><path class="co_ingredient_maca_3" d="M75.79,24.29c1.79,0,.58,1.45-.53.76C74.6,24.61,75.38,24.28,75.79,24.29Z"/><path class="co_ingredient_maca_3" d="M73.12,13.8c.43.47-1,2.18-1.26,1.25C71.79,14.64,72.55,13.78,73.12,13.8Z"/><path class="co_ingredient_maca_3" d="M68.82,20.37c.06-.23.08-.88.45-.91C70.2,20,68.91,22.43,68.82,20.37Z"/><path class="co_ingredient_maca_3" d="M75,21c.47-1.47,1-.16.88.66C75.37,22.52,75.09,21.34,75,21Z"/><path class="co_ingredient_maca_3" d="M76.25,12.49c1,.38-.81,1.46-1.21,1.1C74.87,13,75.86,12.83,76.25,12.49Z"/><path class="co_ingredient_maca_3" d="M80.29,12.88c.37.24,1.1.25,1.1.76C81.05,14.25,79.11,13.34,80.29,12.88Z"/><path class="co_ingredient_maca_3" d="M70.74,34.49c-.72-.31.65-1.15,1.05-1.23C72.13,33.92,71.43,34.43,70.74,34.49Z"/><path class="co_ingredient_maca_3" d="M85.27,25.16a7.52,7.52,0,0,1,.39-1C86.75,23.48,86,26.48,85.27,25.16Z"/><path class="co_ingredient_maca_3" d="M72.77,29.52c.61,0,1.15.7.59,1C73.07,30.21,72.28,30,72.77,29.52Z"/><path class="co_ingredient_maca_3" d="M73.42,16.71a8.85,8.85,0,0,1-.49.75C72.11,17.48,73.07,15.4,73.42,16.71Z"/><path class="co_ingredient_maca_3" d="M80.4,30.57c-.64-.49.2-.79.65-.76C81.72,30,81,30.58,80.4,30.57Z"/><path class="co_ingredient_maca_3" d="M71.67,24c-.4.72-.9.34-.85-.26C71,23.05,71.33,23.62,71.67,24Z"/><path class="co_ingredient_maca_3" d="M78.68,24.9c-.47.24-.68.73-1,.21C78.06,24.84,78.14,24.39,78.68,24.9Z"/><path class="co_ingredient_maca_3" d="M76.72,28.44c-.41.32-.62-.07-.92-.31C76,27.71,76.75,28.13,76.72,28.44Z"/></g></g></g></svg>