<svg xmlns="http://www.w3.org/2000/svg" viewBox="0 0 82.58 65.24"><defs><style>.co_ingredient_inulin_1{fill:#c8911e;}.co_ingredient_inulin_2{fill:#9f6f20;}.co_ingredient_inulin_3{fill:#f5be49;}</style></defs><g id="Layer_2" data-name="Layer 2"><g id="Layer_1-2" data-name="Layer 1"><g id="XN5GTd.tif"><path class="co_ingredient_inulin_1" d="M57,1.26h1.77a2.47,2.47,0,0,0,.36.11c.93.16,1.87.29,2.8.49a75.32,75.32,0,0,1,7.9,2.48A17.75,17.75,0,0,1,72.4,5.56a16.71,16.71,0,0,1,4.33,3.75,20.84,20.84,0,0,1,2.09,2.76c.65,1,1.35,2,2.05,3,.4.56.89,1.07,1.28,1.64a2.06,2.06,0,0,1,.21,2.16,4.19,4.19,0,0,0-.3,1.59,21.94,21.94,0,0,1-.32,2.69,8.44,8.44,0,0,1-3.45,5.19,26.13,26.13,0,0,1-3.91,2.32,14.09,14.09,0,0,1-4.68,1.5c-1.29.17-2.59.33-3.89.47a6.52,6.52,0,0,1-2.45,0c-.85-.23-1.72-.41-2.58-.61-.6-.13-1.21-.22-1.79-.4-.8-.24-1.59-.55-2.38-.84a33,33,0,0,0-3.31-1.24c-.33-.08-.65-.2-1-.31a26,26,0,0,1-3.49-1.77,24.37,24.37,0,0,1-3.79-2.82c-.75-.64-1.57-1.2-2.38-1.77-.56-.41-1.19-.72-1.72-1.17a9.33,9.33,0,0,0-2.47-1.71l-.15-.11c-.48-.31-.94-.66-1.43-.93a8.62,8.62,0,0,1-2.22-1.76,2.27,2.27,0,0,0-1-.69,2.36,2.36,0,0,1-.78-.42,13.75,13.75,0,0,1-3.74-4,1.15,1.15,0,0,0-.41-.46c-.88-.46-1.77-.9-2.66-1.32-.48-.23-1-.42-1.46-.61s-.79-.28-1.19-.41c-.67-.2-1.36-.34-2-.6a14.66,14.66,0,0,0-3.09-.93A1.57,1.57,0,0,1,17,6.7V6.06c.1-.1.22-.19.31-.3a1.28,1.28,0,0,1,.75-.43c.39-.08.78-.18,1.16-.29a26.29,26.29,0,0,1,5.53-1.29c1.22-.09,2.43-.23,3.65-.35L31.72,3c1.8-.18,3.6-.39,5.4-.55S40.9,2.15,42.79,2c1.14-.07,2.28,0,3.42,0l1.32.06A18.11,18.11,0,0,0,51.82,2a29.37,29.37,0,0,1,4.76-.6A1.6,1.6,0,0,0,57,1.26Z"/></g><g id="hCiUaF.tif"><path class="co_ingredient_inulin_2" d="M48.51,17.67a1.52,1.52,0,0,1,0-1,7,7,0,0,1,1.27-2.31A24.66,24.66,0,0,1,53,10.62,5.22,5.22,0,0,0,54.3,8.49c.4-1.17.84-2.32,1.3-3.48a6.88,6.88,0,0,1,.63-1.16,2.56,2.56,0,0,1,.5-.48l.35.31c0,.1,0,.16,0,.22a30.25,30.25,0,0,0-1.68,4.61,6.46,6.46,0,0,1-1.65,2.85,24.8,24.8,0,0,0-4.53,5.95C49,17.55,48.92,17.81,48.51,17.67Z"/><path class="co_ingredient_inulin_2" d="M68.08,7.66a6.74,6.74,0,0,0-.37,3.52c.15,1.25.35,2.49.48,3.74a11.25,11.25,0,0,1-.07,4.13,3.69,3.69,0,0,1-1,1.74c-.51.5-1.06,1-1.58,1.45-.25.23-.47.48-.72.71a5.42,5.42,0,0,1-.5.37l-.31-.24A1.84,1.84,0,0,1,65,21.37a9,9,0,0,0,1-.84,4,4,0,0,0,1.34-3.09A28.64,28.64,0,0,0,67,13.31,10.86,10.86,0,0,1,66.88,10a7.25,7.25,0,0,1,.28-1.6,3.25,3.25,0,0,1,.38-.65A.35.35,0,0,1,68.08,7.66Z"/><path class="co_ingredient_inulin_2" d="M36.74,16.87a1.66,1.66,0,0,1,.19-1.37,16.42,16.42,0,0,1,1.33-2,4.82,4.82,0,0,0,1.1-2.94A16.94,16.94,0,0,1,40,6.16,5.35,5.35,0,0,1,40.52,5a1.94,1.94,0,0,1,.58-.56.34.34,0,0,1,.56.12,1,1,0,0,1-.12.31,5,5,0,0,0-.89,2.78c-.12,1.32-.16,2.64-.27,4a4,4,0,0,1-.89,2.12c-.48.63-1,1.28-1.4,1.94-.21.31-.34.67-.54,1S37.21,17,36.74,16.87Z"/><path class="co_ingredient_inulin_2" d="M53.8,12.33a2.77,2.77,0,0,1,.26.18,1.11,1.11,0,0,1,.12.18A3,3,0,0,1,54,13c-.71,1.29-1.4,2.59-2.13,3.86a18.64,18.64,0,0,0-2.4,6.53,4.37,4.37,0,0,1-.12.49c0,.11-.09.22-.14.33-.49.07-.59.05-.68-.32a2.76,2.76,0,0,1-.09-1,14.6,14.6,0,0,1,1.13-4,28.84,28.84,0,0,1,2.64-4.65c.28-.44.56-.89.87-1.31A6,6,0,0,1,53.8,12.33Z"/><path class="co_ingredient_inulin_2" d="M44.45,15.63a2.4,2.4,0,0,1,.16-1.46,12.33,12.33,0,0,0,.56-3.52,10.24,10.24,0,0,1,1.09-4.6,8,8,0,0,1,1.71-2,.71.71,0,0,1,.81-.19c.21.25,0,.4-.13.58-.39.47-.79.93-1.14,1.42a7.17,7.17,0,0,0-1.15,3.62c-.08.85-.08,1.72-.15,2.57a6.85,6.85,0,0,1-1,3.33C45,15.74,44.94,15.74,44.45,15.63Z"/><path class="co_ingredient_inulin_2" d="M74.42,10c.31.13.26.32.2.5a8.91,8.91,0,0,0-.31,1.09c-.11.91-.22,1.83-.26,2.75C74,16,74,17.59,73.91,19.22c0,.71-.15,1.42-.25,2.12a1.48,1.48,0,0,1-.17.54c-.14.29-.31.36-.74.34,0-.77,0-1.54,0-2.32s.15-1.62.2-2.44c.07-1.05.07-2.1.17-3.14a12.35,12.35,0,0,1,.53-3A3.66,3.66,0,0,1,74.42,10Z"/><path class="co_ingredient_inulin_2" d="M33.07,9.92l-.67,0a5.18,5.18,0,0,1,.72-2.78,2.65,2.65,0,0,1,1.33-1.71l.31.34C34,7.07,33.85,8.57,33.07,9.92Z"/><path class="co_ingredient_inulin_2" d="M73,26a2.77,2.77,0,0,1-.48.34,6.86,6.86,0,0,0-1.68,1.1,3.2,3.2,0,0,1-.74.47.46.46,0,0,1-.58-.1c-.17-.2-.08-.39,0-.58a1,1,0,0,1,.15-.2,5.13,5.13,0,0,1,2.46-1.46C72.63,25.46,72.73,25.52,73,26Z"/><path class="co_ingredient_inulin_2" d="M62.32,24c.35,0,.49.15.49.37a6.22,6.22,0,0,1-.5,2.59l-.65,0A3.76,3.76,0,0,1,62.32,24Z"/><path class="co_ingredient_inulin_2" d="M55.35,25.36a.46.46,0,0,1,.21-.71,4.71,4.71,0,0,1,2.22-.19c.17.26,0,.42-.19.55A4.44,4.44,0,0,1,55.35,25.36Z"/><path class="co_ingredient_inulin_2" d="M58.77,5.67a1.68,1.68,0,0,1,1-1.86c0,.11.14.23.12.32-.11.44-.23.88-.38,1.31S59.11,5.83,58.77,5.67Z"/><path class="co_ingredient_inulin_2" d="M29.76,7.18c0-.82.12-1,.69-1.09.22.43,0,.78-.23,1.18Z"/></g><g id="uJ8y4s.tif"><path class="co_ingredient_inulin_3" d="M34.29,32.82A17.47,17.47,0,0,0,30.84,30c.15.57.31,1,.41,1.53A13.64,13.64,0,0,1,31.44,33a15,15,0,0,1,.11,1.89,13.4,13.4,0,0,1-.85,4.93c-.26.6-.42,1.24-.63,1.85a30.78,30.78,0,0,1-2.21,4.68c-.6,1.09-1.23,2.16-1.83,3.25a54.89,54.89,0,0,1-4.64,7.14c-.72.92-1.4,1.88-2.12,2.82-.44.56-.89,1.12-1.36,1.65a7.62,7.62,0,0,1-.86.74c-.58.46-1.13.95-1.74,1.36a10.56,10.56,0,0,1-4.49,1.91A5.15,5.15,0,0,1,8.39,65c-1-.35-2-.65-2.94-1A3.33,3.33,0,0,1,3.2,61.27c-.15-.7-.27-1.4-.44-2.09A4.4,4.4,0,0,0,2,57.47,8.39,8.39,0,0,1,.32,53.63a11.11,11.11,0,0,1-.15-1.12A33.58,33.58,0,0,1,0,48a27.94,27.94,0,0,1,.67-4.16c.27-1.18.52-2.38.89-3.54a9.23,9.23,0,0,1,1-2.09c.58-.92,1.25-1.78,1.91-2.66a16.47,16.47,0,0,0,1.78-3A46.76,46.76,0,0,1,9,27.39,13.94,13.94,0,0,1,10.93,25a6.77,6.77,0,0,1,3-1.67c.72-.22,1.46-.39,2.16-.66a7.57,7.57,0,0,0,2.39-1.51A1.61,1.61,0,0,0,19,19.81a7.91,7.91,0,0,0-.2-1.81,14.12,14.12,0,0,0-1.63-4.41A15.27,15.27,0,0,0,16,12.09c-.42-.49-.89-.95-1.31-1.44a4.34,4.34,0,0,1-.87-1.59,4.88,4.88,0,0,0-1.37-2.17A12.54,12.54,0,0,1,10,3.73a1.74,1.74,0,0,1-.15-1.57,3.67,3.67,0,0,1,1-1.71c.34-.27.69-.56,1.2-.35a.77.77,0,0,0,.56,0,1.5,1.5,0,0,1,1.57.42,12.47,12.47,0,0,0,3.2,1.75,24.36,24.36,0,0,1,3,1.37,15.34,15.34,0,0,1,1.7,1.2c1.21.91,2.4,1.84,3.6,2.76a17.92,17.92,0,0,1,3.52,3.6c.68.93,1.4,1.84,2.14,2.73a5.15,5.15,0,0,0,1,.87A4.19,4.19,0,0,1,33.52,16a6.32,6.32,0,0,0,2.34,1.89,18,18,0,0,0,1.89.88,13,13,0,0,1,2.55,1.72c1.09.77,2,1.71,3.06,2.54s2.23,1.71,3.34,2.57a8.46,8.46,0,0,1,.89.8,13.1,13.1,0,0,0,3,2.21,6,6,0,0,1,.6.36,19.32,19.32,0,0,0,3.49,1.6c.87.37,1.7.83,2.55,1.26.11.06.21.14.32.19A23.91,23.91,0,0,1,62,35a36.21,36.21,0,0,1,3.5,3.28c.36.36.66.76,1,1.12.68.66,1.39,1.29,2.06,2s1.37,1.43,2,2.15a1.51,1.51,0,0,1,.25.37A24,24,0,0,1,72.35,47a10.53,10.53,0,0,0,1.7,3,14.48,14.48,0,0,1,2.19,3.89c.15.44.35.86.52,1.29a6.48,6.48,0,0,1,.43,1.76c.13,1,.06,2,.1,3a2.11,2.11,0,0,1-.59,1.55,12.57,12.57,0,0,1-3,2.4,5.89,5.89,0,0,1-2.33.74q-1.78.23-3.57.39c-.64.06-1.3.11-2,.11a2.3,2.3,0,0,1-1-.19,37,37,0,0,1-4.2-2,27.64,27.64,0,0,0-2.9-1.4,24.39,24.39,0,0,1-5.38-3.15,32.69,32.69,0,0,0-2.89-2.23,20,20,0,0,0-2.94-1.6A28.42,28.42,0,0,1,43.91,53c-1.38-.82-2.77-1.6-4.13-2.45a32.75,32.75,0,0,1-2.84-2,7.08,7.08,0,0,1-1.71-2.26,14.51,14.51,0,0,1-1.38-4.17c-.22-1.11-.43-2.22-.65-3.33a1,1,0,0,0-.59-.77,1.47,1.47,0,0,1-.45-.23,1,1,0,0,1-.33-.49,4.11,4.11,0,0,1,.76-3,5.59,5.59,0,0,1,1.22-1.16Z"/></g><g id="IneMSH.tif"><path class="co_ingredient_inulin_1" d="M45.22,51.59c.1-.27.16-.47.24-.67a15.45,15.45,0,0,1,5.43-6.62c.34-.24.68-.49,1-.72a6.67,6.67,0,0,0,2.52-3,19.84,19.84,0,0,1,4.33-5.72s.09-.11.14-.12l.69-.1c0,.22,0,.5-.09.67-.29.43-.66.81-1,1.22a20.12,20.12,0,0,0-3.35,5,6.86,6.86,0,0,1-2.47,2.82c-.88.62-1.76,1.25-2.58,1.94a12.08,12.08,0,0,0-3.18,4.36,5.91,5.91,0,0,1-.74,1.23.82.82,0,0,1-.68.13C45.38,52,45.3,51.73,45.22,51.59Z"/><path class="co_ingredient_inulin_1" d="M70.54,46a9.45,9.45,0,0,1-1.79,4.42,16.12,16.12,0,0,1-4,3.62,13.42,13.42,0,0,0-5,5.09c-.21.39-.53.69-1,.43s-.24-.69,0-1.05a14.2,14.2,0,0,1,4.68-5A18.28,18.28,0,0,0,67.53,50a7.52,7.52,0,0,0,1.88-5c0-.13,0-.28,0-.38a4.36,4.36,0,0,1,.41-.55c.17.16.43.29.48.48A12.49,12.49,0,0,1,70.54,46Z"/><path class="co_ingredient_inulin_1" d="M10.41,44.24c.58.15,1.1.31,1.64.42,1,.2,2.11.37,3.17.56a14.14,14.14,0,0,1,6,3.18,18.15,18.15,0,0,1,2,1.92c.16.17.14.51.21.77a2.19,2.19,0,0,1-.81-.22c-.74-.56-1.42-1.19-2.14-1.78a13.28,13.28,0,0,0-7.55-3.22,9.73,9.73,0,0,1-2-.41,2.31,2.31,0,0,1-.8-.47.58.58,0,0,1-.08-.52C10.07,44.36,10.29,44.31,10.41,44.24Z"/><path class="co_ingredient_inulin_1" d="M50.82,29.47c.76.19,1.54.35,2.3.59.17.05.27.36.41.55a3,3,0,0,1-.65.11c-.8,0-1.59-.16-2.38-.17a1.36,1.36,0,0,0-1.39,1A5.16,5.16,0,0,1,45.64,35a21.4,21.4,0,0,0-2,1,2.38,2.38,0,0,1-.63.29c-.2,0-.53,0-.6-.15a.74.74,0,0,1,0-.68,3.21,3.21,0,0,1,.94-.73c.69-.36,1.4-.68,2.12-1a3.89,3.89,0,0,0,2.3-2.21A2.88,2.88,0,0,1,50.82,29.47Z"/><path class="co_ingredient_inulin_1" d="M35.66,20.88c-.18,1.29-.34,2.58-.52,3.87a1.2,1.2,0,0,1-1.2,1.15c-1.11.09-2.22.23-3.33.32-.35,0-.78,0-.83-.48s.36-.6.7-.64c.92-.13,1.84-.25,2.76-.3.5,0,.73-.22.79-.69q.19-1.82.42-3.63a5.1,5.1,0,0,1,.18-1.18c.08-.2.38-.31.57-.47.11.2.3.38.32.58a14.2,14.2,0,0,1,0,1.46Z"/><path class="co_ingredient_inulin_1" d="M41.06,28.56a6.78,6.78,0,0,1,1,.1,1.83,1.83,0,0,1,.53.34,1.75,1.75,0,0,1-.54.31c-.66.1-1.34.15-2,.23A2,2,0,0,0,38.33,31a5.52,5.52,0,0,0-.18.53,2.27,2.27,0,0,1-1.92,1.91,3.07,3.07,0,0,0-1.87,1.31c-.1.14-.19.32-.33.37s-.58.18-.71.07a.72.72,0,0,1-.11-.7,4,4,0,0,1,1-1.17,6.63,6.63,0,0,1,1.78-.9,1.42,1.42,0,0,0,1-1l.06-.18C38,29.05,38.69,28.58,41.06,28.56Z"/><path class="co_ingredient_inulin_1" d="M17.68,23.06a12,12,0,0,1,1.26.34,3.4,3.4,0,0,0,2.29.06c.28-.08.57-.13.86-.19A1.83,1.83,0,0,1,24,23.9a.89.89,0,0,0,.73.23,1.45,1.45,0,0,1,1.87.61,4.43,4.43,0,0,1,.47.6,1.41,1.41,0,0,1,0,.51c-.19,0-.43.11-.56,0a2.25,2.25,0,0,1-.61-.62A.58.58,0,0,0,25.1,25c-1,.41-1.16.39-1.91-.46a.89.89,0,0,0-1.14-.18,6.26,6.26,0,0,1-4.39-.1,1,1,0,0,1-.55-.68C17.11,23.42,17.5,23.22,17.68,23.06Z"/><path class="co_ingredient_inulin_1" d="M29.76,14.46a3.52,3.52,0,0,1-.61.91c-1.11.83-2.22,1.66-3.4,2.38s-2.65,1.46-4,2.18a1.27,1.27,0,0,1-.52.21.78.78,0,0,1-.53-.23.57.57,0,0,1,.05-.52,1.66,1.66,0,0,1,.56-.49c1.07-.59,2.14-1.17,3.23-1.72A13.63,13.63,0,0,0,29,14.23a.5.5,0,0,1,.42-.16C29.54,14.11,29.62,14.3,29.76,14.46Z"/><path class="co_ingredient_inulin_1" d="M21.38,6.5a5.25,5.25,0,0,1-2.1,3.72,6,6,0,0,1-2.54.55c-.14,0-.45-.26-.46-.41a.79.79,0,0,1,.33-.6c.38-.16.83-.16,1.22-.31A2.92,2.92,0,0,0,19,8.77a5.38,5.38,0,0,0,1.41-3.24c0-.21.26-.41.4-.62a2.72,2.72,0,0,1,.52.62A3.57,3.57,0,0,1,21.38,6.5Z"/><path class="co_ingredient_inulin_1" d="M21,14.28c-.14-.1-.51-.27-.51-.42a.85.85,0,0,1,.46-.64,5,5,0,0,0,2.95-2.93,7.34,7.34,0,0,1,.92-1.42c.12-.16.47-.13.71-.19a1.85,1.85,0,0,1,0,.74c-.38.86-.78,1.72-1.23,2.55a4.21,4.21,0,0,1-2.6,2.16C21.5,14.18,21.31,14.21,21,14.28Z"/><path class="co_ingredient_inulin_1" d="M2.36,51.9l.34.18a7.19,7.19,0,0,1,2.54,2.51c.47.78.88,1.59,1.29,2.4.14.28.41.67,0,.86-.16.08-.56-.18-.74-.38a7.11,7.11,0,0,1-.83-1.27,8.57,8.57,0,0,0-2.53-3,2,2,0,0,1-.57-.66A.49.49,0,0,1,2.36,51.9Z"/><path class="co_ingredient_inulin_1" d="M75.94,58.24a18.08,18.08,0,0,1-1,2A10.08,10.08,0,0,1,71.75,63a.52.52,0,0,1-.71-.74,3.35,3.35,0,0,1,.77-.73,8.06,8.06,0,0,0,3-3.48.79.79,0,0,1,.61-.37C75.6,57.7,75.75,58,75.94,58.24Z"/><path class="co_ingredient_inulin_1" d="M16.18,56.81a3.59,3.59,0,0,1-.93-.12.77.77,0,0,1-.4-.48c0-.09.25-.33.41-.37.45-.12.92-.12,1.36-.25,1-.28,2-.61,2.93-.93.18-.06.33-.22.51-.24a3.61,3.61,0,0,1,.73.07c-.08.23-.09.54-.25.69A6.69,6.69,0,0,1,16.18,56.81Z"/><path class="co_ingredient_inulin_1" d="M25.65,40.22a6.16,6.16,0,0,1-3.28-1.35c-.29-.24-.58-.48-.85-.74-.09-.07-.19-.24-.16-.3a.47.47,0,0,1,.31-.24,1.8,1.8,0,0,1,1.42.36A8,8,0,0,0,25,39a8.84,8.84,0,0,0,1.8.12,2,2,0,0,1,.6.3c-.16.18-.28.44-.47.51A11,11,0,0,1,25.65,40.22Z"/><path class="co_ingredient_inulin_1" d="M14.82,36.61c-1-.24-1.8-.41-2.58-.64-.16,0-.38-.38-.34-.5a.69.69,0,0,1,.51-.4,4.45,4.45,0,0,1,1.3.19,2.56,2.56,0,0,0,2.18-.17c.08,0,.16-.11.23-.1.25,0,.49.09.73.14-.08.24-.09.6-.25.69C16,36.15,15.33,36.39,14.82,36.61Z"/><path class="co_ingredient_inulin_1" d="M13,5.63c-.09-.07-.41-.23-.47-.45-.09-.38.19-.6.58-.65.7-.09,1-.68,1.33-1.16.22-.28.34-.89.84-.56.17.1.14.74,0,1A2.35,2.35,0,0,1,13,5.63Z"/><path class="co_ingredient_inulin_1" d="M36,36.73a13,13,0,0,1-.56,1.82c-.11.22-.51.3-.77.45-.09-.28-.29-.58-.23-.82A7.61,7.61,0,0,1,35,36.59c.09-.18.38-.39.54-.36S35.84,36.55,36,36.73Z"/><path class="co_ingredient_inulin_1" d="M7.63,44c-.65-.47-1.31-.91-1.92-1.4-.09-.06-.07-.38,0-.49a.52.52,0,0,1,.48-.16c.63.38,1.23.79,1.82,1.23a.47.47,0,0,1,.07.45C8.06,43.74,7.87,43.81,7.63,44Z"/><path class="co_ingredient_inulin_1" d="M46.71,41.07c-.32,0-.53-.33-.27-.55A19,19,0,0,1,48.57,39s.36.27.35.4A4.28,4.28,0,0,1,46.71,41.07Z"/><path class="co_ingredient_inulin_1" d="M13.9,2.42c-.53.38-1,.76-1.52,1.06-.35.2-.86-.19-.68-.49a3,3,0,0,1,1-.91A.83.83,0,0,1,13.9,2.42Z"/><path class="co_ingredient_inulin_1" d="M11.46,59c-.44-.11-1.05,0-1-.63s.6-.46,1-.46a2.8,2.8,0,0,1,.81.13.57.57,0,0,1,.33.37.51.51,0,0,1-.29.41A4,4,0,0,1,11.46,59Z"/><path class="co_ingredient_inulin_1" d="M10.28,33.78l1.05,1c-.16.12-.32.32-.49.33-.55.06-1.12-.3-1.06-.65C9.81,34.26,10,34.11,10.28,33.78Z"/><path class="co_ingredient_inulin_1" d="M74.59,62.06c0-.1-.19-.3-.14-.38a8.84,8.84,0,0,1,.86-1.06s.34.08.38.18C75.84,61.21,75.12,62.09,74.59,62.06Z"/><path class="co_ingredient_inulin_1" d="M73.19,57.07a2.89,2.89,0,0,1-.56.67,2.17,2.17,0,0,1-.74.13,3.21,3.21,0,0,1,.24-.7,1.51,1.51,0,0,1,.44-.43.43.43,0,0,1,.37-.07C73.05,56.73,73.09,56.9,73.19,57.07Z"/><path class="co_ingredient_inulin_1" d="M19.51,38.28l-.76-.81c.16-.13.38-.4.46-.37a5.4,5.4,0,0,1,.86.58Z"/><path class="co_ingredient_inulin_1" d="M4.29,49.77c-.28.15-.48.32-.55.28a1.39,1.39,0,0,1-.44-.49s.28-.33.34-.3A3.17,3.17,0,0,1,4.29,49.77Z"/></g><g id="vY202g.tif"><path class="co_ingredient_inulin_1" d="M58.21,42.4c0-2.06,1.15-3.25,2.87-3.17,1.31.06,1.83.83,1.21,2a18.91,18.91,0,0,1-1.58,2.16l0,0a1.72,1.72,0,0,1-1.83.47C58.17,43.56,58.22,42.88,58.21,42.4Z"/><path class="co_ingredient_inulin_1" d="M22.48,40.86c.55.18,1.12.32,1.65.54a.9.9,0,0,1,.57,1,.72.72,0,0,1-.76.65c-.48-.06-1-.14-1.42-.24a1.65,1.65,0,0,1-.55-.23,1,1,0,0,1-.47-1.08C21.62,41.13,22,40.93,22.48,40.86Z"/><path class="co_ingredient_inulin_2" d="M63.59,11.6a4.63,4.63,0,0,1-1.1-.2.88.88,0,0,1-.48-.56.8.8,0,0,1,.34-.65,3.89,3.89,0,0,1,3.21-.32c.22.09.51.36.5.54a.87.87,0,0,1-.46.65C64.9,11.3,64.16,11.45,63.59,11.6Z"/></g></g></g></svg>