<svg xmlns="http://www.w3.org/2000/svg" viewBox="0 0 90.58 66.97"><defs><style>.co_ingredient_coconut_1{fill:#391c15;}.co_ingredient_coconut_2{fill:#522000;}.co_ingredient_coconut_3{fill:#fffbee;}.co_ingredient_coconut_4{fill:#e5e1d0;}.co_ingredient_coconut_5{fill:#210b05;}</style></defs><g id="Layer_2" data-name="Layer 2"><g id="Layer_1-2" data-name="Layer 1"><g id="MQHiEh.tif"><path class="co_ingredient_coconut_1" d="M61.55.07c3.92-.4,7.83.92,11.51,3a11.73,11.73,0,0,1,3.77,3,13.63,13.63,0,0,0,2.39,1.89,26.78,26.78,0,0,1,6.49,7.53c.83,1.47,1.74,2.9,2.53,4.39a15.83,15.83,0,0,1,1.52,6c.14,1.38.4,2.75.67,4.11a7.34,7.34,0,0,1-.3,4c-1.23,3.36-3.26,6.29-5,9.38a31,31,0,0,1-5.2,6.75,26.06,26.06,0,0,1-13.89,7.55,21.59,21.59,0,0,1-14.33-1.9c-2-1.08-4.23-1.91-6-3.47-1-.91-2-1.91-3-2.75a26.39,26.39,0,0,1-9.43-15.3,24.44,24.44,0,0,1-.3-7,20.71,20.71,0,0,1,1.15-6,12.25,12.25,0,0,0,.32-1.51,1.62,1.62,0,0,1,.17-.59c.7-1.06,1.42-2.11,2.14-3.16a4.44,4.44,0,0,0,.53-.72A15.85,15.85,0,0,1,41,10a55.9,55.9,0,0,1,5.68-5.1,28.55,28.55,0,0,1,6-3.54A25.9,25.9,0,0,1,58.46.1,20.5,20.5,0,0,1,61.55.07Z"/></g><path class="co_ingredient_coconut_2" d="M13.63,24.69c-.21-.77.25-1.18,1-1.42.18-.06.33-.31.42-.51.2-.43.46-.69,1-.49.37-1.07,1.34-1.44,2.16-1.95.55-.34,1.21-.51,1.77-.84a4.89,4.89,0,0,1,2.93-.71.37.37,0,0,0,.26,0c1.24-1,2.81-.74,4.22-1a8.82,8.82,0,0,1,1.92-.12,18.53,18.53,0,0,1,3.19.44,18.24,18.24,0,0,1,4.85,2,27.19,27.19,0,0,1,4,2.79,17.48,17.48,0,0,1,3,3.19,43.93,43.93,0,0,1,2.35,4.33,8.66,8.66,0,0,1,.64,1c.4,1,1,1.93.93,3.13a3,3,0,0,0,.4,1.48,10.11,10.11,0,0,1,.75,5.42c0,.53-.06,1.06-.1,1.58a8,8,0,0,1-.43,1.68A4,4,0,0,1,49,45.75c-.37,1.21-.82,2.39-1.22,3.59a10.18,10.18,0,0,1-.45,1.51c-.86,1.59-1.87,3.09-2.63,4.72-.42.91-1.24,1.43-1.7,2.32A8.61,8.61,0,0,1,40.91,60a25.81,25.81,0,0,1-2.43,2,23.21,23.21,0,0,1-3.16,1.93,20.72,20.72,0,0,1-3.42,1.29,17.3,17.3,0,0,1-2.18.23c-.32.06-.6.34-.93.42-.92.22-1.85.38-2.78.56a20.5,20.5,0,0,1-2.87.49c-1.68.07-3.38,0-5.06,0a19.26,19.26,0,0,1-3.19-.51,14.54,14.54,0,0,1-1.63-.7c-.33-.12-.74-.06-1-.21-1.3-.65-2.58-1.35-3.87-2a33.82,33.82,0,0,1-3.52-1.88A18.89,18.89,0,0,1,2,59a3.87,3.87,0,0,1-.54-1.38c0-.09,0-.22-.05-.27-.8-.74-.57-1.91-1.13-2.76A2,2,0,0,1,0,53.5c0-1.59.1-3.17,0-4.75-.13-2.69.83-5.14,1.57-7.64a20.13,20.13,0,0,1,1.19-2.54,21.94,21.94,0,0,1,1.07-2.3c.85-1.36,1.79-2.67,2.7-4a29.4,29.4,0,0,1,1.81-2.6c1.38-1.62,2.83-3.18,4.29-4.72C12.83,24.77,13.22,24.79,13.63,24.69Z"/><path class="co_ingredient_coconut_3" d="M43.38,36.52l-.11,0A17.65,17.65,0,0,0,43,33.76a30.34,30.34,0,0,0-1.19-3.6,15.34,15.34,0,0,0-7.4-8.53,38,38,0,0,0-5.62-1.7,26.8,26.8,0,0,0-3.11-.47,2,2,0,0,0-.55,0c-1,.15-2,.23-3,.47a10.11,10.11,0,0,0-3.36,1.13,19.83,19.83,0,0,0-4.27,3.45c-.82,1-1.89,1.77-2.74,2.75C10.35,29,9,30.71,7.57,32.45A14.13,14.13,0,0,0,5.16,36c-.12.3-.44.52-.6.82-.47.83-.91,1.67-1.36,2.51a1,1,0,0,0-.12.31,8.26,8.26,0,0,1-.2,1c-.28.8-.67,1.57-.88,2.39-.33,1.37-.51,2.78-.84,4.14a9.34,9.34,0,0,0,.91,6A10.26,10.26,0,0,0,4.6,56.34c1.25,1.17,2.7,2.14,4.07,3.19.08.06.21,0,.32.08.86.23,1.71.47,2.57.68,1.07.27,2.18.83,3.18.68,1.37-.2,2.75.5,4.06-.16a.32.32,0,0,1,.14,0,9.66,9.66,0,0,0,1.32-.11,24.33,24.33,0,0,0,6.61-2.13c1.27-.71,2.56-1.38,3.79-2.16s2.1-1.5,3.14-2.26a2,2,0,0,0,.41-.35c.28-.34.51-.71.8-1,1.07-1.18,2.26-2.28,3.22-3.55,1.18-1.58,2.16-3.31,3.29-4.94a2.27,2.27,0,0,0,.6-1.55c.93-.51.74-1.34.76-2.21A35.94,35.94,0,0,1,43.38,36.52Z"/><g id="_0rhPOL.tif" data-name="0rhPOL.tif"><path class="co_ingredient_coconut_4" d="M18.21,57c-1-.07-1.92-.11-2.87-.21a5.27,5.27,0,0,1-1.35-.3c-1-.38-2.06-.81-3.09-1.22A4.64,4.64,0,0,1,9,53.83c-.25-.32-.56-.61-.84-.92a6.29,6.29,0,0,1-1.45-5.8,52.13,52.13,0,0,1,2.67-8.82,34.59,34.59,0,0,1,3.22-6.51A20.48,20.48,0,0,1,16.52,27a13.75,13.75,0,0,1,4.42-2.27,24.37,24.37,0,0,1,3.53-1,6,6,0,0,1,4.11.6c1.71,1,3.35,2.05,5,3.1a2.31,2.31,0,0,1,.63.53c.88,1.13,1.82,2.23,2.58,3.43a10.59,10.59,0,0,1,1.41,4.88,21.05,21.05,0,0,1-.4,5.93,14.25,14.25,0,0,1-2.7,5.64,43.76,43.76,0,0,1-4.94,5.33,5.85,5.85,0,0,1-1.37.94,17.88,17.88,0,0,1-4.11,1.66c-1.45.37-2.9.77-4.37,1.07A15,15,0,0,1,18.21,57Z"/></g><g id="g7qaLo.tif"><path class="co_ingredient_coconut_5" d="M65.26,6.93c0,.05.07.13.11.14a3.49,3.49,0,0,0,.56,0,19.52,19.52,0,0,1,2.86.16,3.11,3.11,0,0,1,1,.15c.32.15.65,0,1,.22s.71.06,1,.18a20.79,20.79,0,0,1,2.6,1,3.27,3.27,0,0,1,.83.62v.47a2.61,2.61,0,0,1-1.61-.3c-.76-.25-1.53-.46-2.31-.64a6.32,6.32,0,0,0-1.62-.28c-.33-.27-.76,0-1.1-.19s-.73,0-1.08-.09a16.32,16.32,0,0,0-3.35-.13c-1.14,0-2.27,0-3.44,0l-.68-.49.35-.62h.83s.08-.09.11-.14Z"/><path class="co_ingredient_coconut_5" d="M58.11,45.05c-.34-.22-.2-.52-.22-.77a1.2,1.2,0,0,1,.84-.36c.5,0,1-.26,1.48-.3a6.36,6.36,0,0,0,.93-.24c.31-.06.62-.09.92-.14a2.56,2.56,0,0,1,.91-.15c.22-.3.64,0,.86-.27a20.76,20.76,0,0,0,2.69-.57,11.81,11.81,0,0,0,1.72-.54c.57-.18,1.15-.33,1.72-.54.94-.36,1.89-.69,2.83-1.06a27.48,27.48,0,0,0,2.92-1.33A18.29,18.29,0,0,0,78.58,37l1.76-1.46c.51-.42.93-1,1.47-1.32s.94-1,1.59-1.36H84l.18.39a16,16,0,0,1-2.11,2.44c-.35.32-.71.62-1.07.93l-1,.9a18.86,18.86,0,0,1-2.73,2c-.54.35-1.16.58-1.71.9a23.61,23.61,0,0,1-3.16,1.44c-.65.26-1.32.52-2,.73s-1.35.45-2,.66-1.61.36-2.39.61-1.54.29-2.29.53a7.24,7.24,0,0,1-1.25.15c-.22,0-.43.1-.64.14s-.42-.06-.57.14c0,0-.09,0-.14,0a11.15,11.15,0,0,0-1.74.16A7.94,7.94,0,0,1,58.11,45.05Z"/><path class="co_ingredient_coconut_5" d="M76.46,13.19l.53.36a.74.74,0,0,1-.69.47,5,5,0,0,1-1.45,0A14.56,14.56,0,0,0,72,13.89a21,21,0,0,0-2.1-.15c-.69,0-1.39,0-2.09,0-.86,0-1.71.2-2.58.15-.23,0-.45.15-.71.14a1.3,1.3,0,0,0-.67.06c-.2.11-.5,0-.73.08-.73.23-1.48.34-2.22.5-1.17.25-2.27.71-3.41,1-.55.16-1.06.47-1.6.67-1.08.41-2.13.88-3.19,1.36-.76.35-1.54.66-2.29,1-.12.06-.22.14-.4.25h-.55a.73.73,0,0,1,.16-1.07,10.31,10.31,0,0,1,2.52-1.28,11.12,11.12,0,0,1,2.05-.93c.85-.36,1.71-.68,2.58-1,.6-.23,1.21-.45,1.83-.62s1.24-.38,1.88-.51a15.75,15.75,0,0,1,2.26-.41c.4-.28.87-.08,1.31-.2s.92,0,1.36-.09a9.88,9.88,0,0,1,2.24-.12c.76,0,1.53,0,2.29,0,1.24-.06,2.46.25,3.7.14a9.89,9.89,0,0,0,1.61.17A7,7,0,0,0,76.46,13.19Z"/><path class="co_ingredient_coconut_5" d="M75.46,27.24l.43.26-.34.36c-.2.14-.49,0-.78.2s-.59-.09-.84.16a7.67,7.67,0,0,0-1.83.29,7.65,7.65,0,0,0-1.43.4c-1,.28-1.91.54-2.85.84-1.12.36-2.25.72-3.35,1.16a11.12,11.12,0,0,0-1.23.53,1,1,0,0,1-.57.1c-.07-.07-.16-.13-.18-.21a1.68,1.68,0,0,1,0-.4,6.16,6.16,0,0,1,1.3-.91,12.59,12.59,0,0,1,3-1.23,29,29,0,0,1,3.2-.86,10.19,10.19,0,0,1,2.12-.41c.35-.24.78,0,1.12-.16a3.11,3.11,0,0,1,1.13-.11C74.71,27.23,75.11,27.24,75.46,27.24Z"/><path class="co_ingredient_coconut_1" d="M45.08,37.41l.42-.19a1.18,1.18,0,0,1,.56,1,3.07,3.07,0,0,0,.13.5c0,.17-.07.37.11.51s0,.13,0,.2a11.64,11.64,0,0,0,.16,1.46,17.65,17.65,0,0,1,.25,1.9,13.49,13.49,0,0,1,0,2,8.44,8.44,0,0,1-.41,2.39c-.12.35-.3.67-.45,1l-.5.21-.27-.19a1,1,0,0,1,.09-.64,8,8,0,0,0,.46-1.68,20.65,20.65,0,0,0,.11-3.14,4.07,4.07,0,0,0-.13-.84c0-.29.13-.61-.14-.85A5.91,5.91,0,0,0,45.37,40c0-.41-.25-.78-.15-1.19-.18-.18-.13-.42-.14-.64Z"/><path class="co_ingredient_coconut_1" d="M22.44,64.94l.26.22-.2.43A3.54,3.54,0,0,1,20,65.06a4.62,4.62,0,0,1-1.35-.92s-.12,0-.2-.06l-.21-.57.22-.22a1.35,1.35,0,0,1,1.17.32c.6.38,1.22.74,1.85,1.06A1.6,1.6,0,0,0,22.44,64.94Z"/><path class="co_ingredient_coconut_5" d="M68.38,50.61a.52.52,0,0,1,0-.84,6.55,6.55,0,0,0,2.53-.6c.46-.11.88-.33,1.33-.47a4,4,0,0,1,.63-.05V49a3.69,3.69,0,0,1-1.84,1.15c-.23.09-.54.07-.73.22s-.53-.07-.67.22Z"/><path class="co_ingredient_coconut_5" d="M57.26,53l-.5.38A3.73,3.73,0,0,1,53.4,52l.13-.35a.66.66,0,0,1,.8.06,6.12,6.12,0,0,0,1.71.71c.29.07.57.16.86.25a.56.56,0,0,1,.17.09A1.84,1.84,0,0,1,57.26,53Z"/><path class="co_ingredient_coconut_1" d="M33.46,61.32l.35.35V62l-.33.32c-.41.06-.82.09-1.21.17s-.77-.21-1.17-.14l-.47-.47v-.45a1.16,1.16,0,0,1,1.18-.08c.22.12.55,0,.82,0Z"/><path class="co_ingredient_coconut_5" d="M55.06,10.87c-.15-.23-.45-.3-.33-.7a1,1,0,0,1,.49-.37,4.75,4.75,0,0,1,2.05-.21l.2.19v.44A12.57,12.57,0,0,1,55.06,10.87Z"/><path class="co_ingredient_coconut_1" d="M9.3,62.35l.41-.4,1.53,1.53V64h-.62C10,63.49,9.32,63.13,9.3,62.35Z"/><path class="co_ingredient_coconut_1" d="M41.6,53.13V52l.39-.54c.09.06.16.08.19.13a2,2,0,0,1,.2.48c.13.57.24,1.15.36,1.71L42.3,54l-.37-.18Z"/><path class="co_ingredient_coconut_5" d="M56.46,23.44l-1,.2-.3-.54a1.17,1.17,0,0,1,.56-.34,7.3,7.3,0,0,0,1.4-.56l.35.48C57.28,23.09,56.82,23.24,56.46,23.44Z"/><path class="co_ingredient_coconut_5" d="M55.17,33.64H53.45l0-.51c.65-.48,1.36-.28,2.07-.33v.52Z"/></g><g id="_2vaLL3.tif" data-name="2vaLL3.tif"><path class="co_ingredient_coconut_4" d="M4.18,42.92h-.9a.44.44,0,0,1-.5-.38.51.51,0,0,1,.37-.59,2.55,2.55,0,0,1,.61-.13l2.55-.19a.7.7,0,0,1,.41,0c.18.1.41.24.47.41s-.14.49-.41.53c-.73.13-1.46.22-2.19.32A2.77,2.77,0,0,1,4.18,42.92Z"/><path class="co_ingredient_coconut_4" d="M32.32,25.86c-.13-.14-.28-.24-.3-.36a.76.76,0,0,1,.09-.46,6,6,0,0,1,1.66-2,2,2,0,0,1,.55-.28c.11,0,.33,0,.36.08a.49.49,0,0,1,0,.43c-.63.77-1.27,1.52-1.92,2.26A3.21,3.21,0,0,1,32.32,25.86Z"/><path class="co_ingredient_coconut_4" d="M8.89,57.8c-.1-.14-.31-.3-.35-.51A2,2,0,0,1,9.67,55.7a.49.49,0,0,1,.63.52,2.54,2.54,0,0,1-1.08,1.52Z"/><path class="co_ingredient_coconut_4" d="M35.83,27.69c-.22-.11-.44-.15-.47-.25a.54.54,0,0,1,.11-.48,3.43,3.43,0,0,1,2-.91c.16,0,.34.15.51.23-.08.15-.13.37-.25.44C37.08,27.07,36.44,27.38,35.83,27.69Z"/><path class="co_ingredient_coconut_4" d="M40.17,37.09c.35.1.7.16,1,.29a.49.49,0,0,1,.36.59.46.46,0,0,1-.59.34,13.1,13.1,0,0,1-1.51-.45c-.12,0-.28-.28-.25-.35a.73.73,0,0,1,.38-.31,2,2,0,0,1,.55-.05Z"/><path class="co_ingredient_coconut_4" d="M16,59.09a5.37,5.37,0,0,1,.2-.84.6.6,0,0,1,.41-.3.42.42,0,0,1,.34.26,6.89,6.89,0,0,1,.11,1.5c0,.15-.27.37-.46.42s-.44-.2-.51-.45A4.6,4.6,0,0,1,16,59.09Z"/><path class="co_ingredient_coconut_4" d="M23,22.81c-.11.15-.19.38-.31.4a.52.52,0,0,1-.42-.24,5.3,5.3,0,0,1-.45-1.14c0-.15.11-.35.17-.53.2.08.51.1.58.24A9.43,9.43,0,0,1,23,22.81Z"/><path class="co_ingredient_coconut_4" d="M3.25,50.84c-.08-.06-.21-.1-.24-.19s0-.26,0-.29q.71-.4,1.44-.75c.07,0,.27.08.33.17a.42.42,0,0,1,0,.38.9.9,0,0,1-.41.34C4,50.64,3.65,50.72,3.25,50.84Z"/><path class="co_ingredient_coconut_4" d="M11.27,31.62c-.07.05-.18.21-.32.24a1.83,1.83,0,0,1-1.28-.69.52.52,0,0,1,.11-.46C10.13,30.45,11.23,31.06,11.27,31.62Z"/><path class="co_ingredient_coconut_4" d="M32.94,50.26a1.18,1.18,0,0,1,1,.85.51.51,0,0,1-.12.48.56.56,0,0,1-.5,0A1.13,1.13,0,0,1,32.94,50.26Z"/></g></g></g></svg>