<svg xmlns="http://www.w3.org/2000/svg" viewBox="0 0 76.64 74.27"><defs><style>.co_ingredient_chickpea_1{fill:#f5be49;}.co_ingredient_chickpea_2{fill:#ffd271;}.co_ingredient_chickpea_3{fill:#daa641;}.co_ingredient_chickpea_4{fill:#9f6f20;}.co_ingredient_chickpea_5{fill:#c8911e;}</style></defs><g id="Layer_2" data-name="Layer 2"><g id="Layer_1-2" data-name="Layer 1"><g id="t8h2Ke.tif"><path class="co_ingredient_chickpea_1" d="M38,44c-1-2.26-1.39-2.44-2.75-5.48-2.17-3.8-4-8.54-10.35-10.12-7.15-2-8.63-.91-8.79-.91a9.48,9.48,0,0,0-5,1.85,10.28,10.28,0,0,0-2,2.05c-1.85,2.4-3.68,4.81-5.43,7.28A23.22,23.22,0,0,0,.93,44.27,17.89,17.89,0,0,0,0,50.46c0,1.14,0,2.27,0,3.4a17.73,17.73,0,0,0,2,6.36A25.83,25.83,0,0,0,5.2,65a13.07,13.07,0,0,0,1.31,1.37c.85.76,1.73,1.49,2.58,2.26a6.93,6.93,0,0,0,4.84,1.72c1.2,0,2.41,0,3.61,0a12.23,12.23,0,0,1,4,.6,13.58,13.58,0,0,0,6.73.08A12.43,12.43,0,0,0,35.75,66a19.18,19.18,0,0,0,2.53-5.93c.26-.89.54-1.78.84-2.71C40,51,38,44,38,44Z"/><path class="co_ingredient_chickpea_2" d="M74.69,42.64a20.45,20.45,0,0,0-2-2.36A69.72,69.72,0,0,1,66,32.72a11.8,11.8,0,0,0-3.52-3.15,5.8,5.8,0,0,0-1.24-.48A10.94,10.94,0,0,0,54.43,29c-.89.25-1.81.4-2.71.59-.14,0-.28,0-.41.08-1.54.46-3.09.93-4.64,1.38l0,0a12.28,12.28,0,0,0-5.48,4.28L40,36.87c-.74,2-2.12,5.66-2,7.86a15.16,15.16,0,0,0-.15,2.44c.25,4.19-.58,2.17.53,6.42.06-.16.78,4.45,2.91,6.62,1.57,1.59,2.44,3.73,3.72,5.57a7,7,0,0,0,2.36,2,2.75,2.75,0,0,1,1.29,1.61c.15.46.33.9.46,1.37A5.77,5.77,0,0,0,50.48,73a1.62,1.62,0,0,0,.52.38,8.07,8.07,0,0,0,4.56.85,15.26,15.26,0,0,0,3.13-.64c.1,0,.26,0,.39,0l3.12-1.09c1.55-1.45,3.08-2.92,4.64-4.36.5-.46,1-.88,1.56-1.29a21.87,21.87,0,0,0,5.54-5.77A11.35,11.35,0,0,0,75.47,57c.16-.94.42-1.86.57-2.8.22-1.52.47-3,.58-4.56a9.77,9.77,0,0,0-.27-3A10.91,10.91,0,0,0,74.69,42.64Z"/><path class="co_ingredient_chickpea_3" d="M34,38.33a13.07,13.07,0,0,0,5.8-.42c-.07.22,2.1-1.27,2-1A16.16,16.16,0,0,0,46,31.23a3.1,3.1,0,0,1,1.2-1.83c.74-.62,1.5-1.21,2.25-1.82a12.69,12.69,0,0,0,2.78-3,9,9,0,0,0,1.36-6.41c-.16-1-.29-2-.47-3A3.66,3.66,0,0,0,52.75,14a20.21,20.21,0,0,0-3.66-5.57,23.3,23.3,0,0,0-2.2-2c-1.61-1.22-3.25-2.43-5-3.51a32.85,32.85,0,0,0-3.44-1.64c-2-1-4.21-1-6.35-1.25a8.89,8.89,0,0,0-2.75.29c-1.14.24-2.25.62-3.38.92-.73.19-1.47.34-2.2.54-1.06.28-2.11.59-3.17.89l-6,1.69a9.55,9.55,0,0,0-1.36.48,2.21,2.21,0,0,0-1.3,1.52,8,8,0,0,0-.09,3.88c.29,1.27.75,2.5,1.05,3.77A17.1,17.1,0,0,1,13.34,17,21.14,21.14,0,0,0,14.51,23c.22.61.43,1.23.65,1.85.31.85.63,1.71,1,2.61C24.06,27.63,30.05,32.06,34,38.33Z"/></g><g id="Hs6E9T.tif"><path class="co_ingredient_chickpea_4" d="M7,56.34c.07-.68.14-1.35.23-2a1.53,1.53,0,0,1,.57-1.21c.47-.06.63.25.66.61.08.89.17,1.78.17,2.68s-.4,1.15-1.32.82Z"/><path class="co_ingredient_chickpea_4" d="M28,41.17a1,1,0,0,1,1,.41,14.31,14.31,0,0,1,3.44,5.68,7.26,7.26,0,0,1,.2,2,32.76,32.76,0,0,1-1.85,10c-.26.77-.55,1.52-.83,2.28-.13.36-.29.7-.79.62-.45-.3-.41-.74-.31-1.17.19-.84.42-1.68.66-2.52A47.37,47.37,0,0,0,31,50.78a8.87,8.87,0,0,0-1.52-6.27c-.49-.71-1-1.45-1.41-2.19C27.87,42,27.56,41.6,28,41.17Z"/><path class="co_ingredient_chickpea_5" d="M66.85,51.37a10.53,10.53,0,0,0,.27-4.22,15.14,15.14,0,0,0-6.36-10.26c-.5-.37-1-.71-1.55-1a1.06,1.06,0,0,1-.6-1.06c.6-.55.8-.6,1.46-.18a20.59,20.59,0,0,1,5.55,5.06,15.42,15.42,0,0,1,2.82,8.27,6.27,6.27,0,0,1-.64,3.18C67.56,51.62,67.45,51.64,66.85,51.37Z"/><path class="co_ingredient_chickpea_1" d="M42.63,24.74l.24.69a1.78,1.78,0,0,1-1.55.56,9.09,9.09,0,0,1-2.09-.4c-2.84-1-5.68-2.06-8.47-3.23A42.89,42.89,0,0,1,26.34,20a1.8,1.8,0,0,1-.69-.73c-.25-.52.11-.94.68-.83a1.53,1.53,0,0,1,.68.29,27.06,27.06,0,0,0,6.93,3.4c1.7.63,3.36,1.32,5,2A6.17,6.17,0,0,0,42.63,24.74Z"/><path class="co_ingredient_chickpea_1" d="M47.25,22.16l-.39-.24c-.1-.26-.15-.33-.13-.38a2.57,2.57,0,0,0-.14-1.45A27.72,27.72,0,0,0,43.41,14a46.8,46.8,0,0,0-4.76-6.2,4.2,4.2,0,0,1-.74-1A.89.89,0,0,1,38,6.07c.19-.3.55-.24.83-.06a2.52,2.52,0,0,1,.49.43A43,43,0,0,1,47,17.7a15.1,15.1,0,0,1,.86,2.56A1.57,1.57,0,0,1,47.25,22.16Z"/><path class="co_ingredient_chickpea_5" d="M52.27,53.07a.65.65,0,0,1,.31,1,19.16,19.16,0,0,0-1.24,4.87A10,10,0,0,1,51.08,60a.77.77,0,0,1-.79.54c-.42,0-.6-.3-.68-.65a2.31,2.31,0,0,1,0-.74,17.7,17.7,0,0,1,1.37-4.73,3.58,3.58,0,0,1,.63-.92A2.74,2.74,0,0,1,52.27,53.07Z"/><path class="co_ingredient_chickpea_5" d="M49.4,36.63l.47-.17c.38-.11.77-.11,1,.3s-.13.71-.45.89a10.25,10.25,0,0,0-2.49,2.2,2.32,2.32,0,0,1-.71.58.65.65,0,0,1-.95-.71,1.17,1.17,0,0,1,.19-.52A8.42,8.42,0,0,1,49.4,36.63Z"/><path class="co_ingredient_chickpea_4" d="M24.51,36.25a.74.74,0,0,1-1.1.32,15.63,15.63,0,0,1-2.23-1.33,6.67,6.67,0,0,1-1.26-1.48.58.58,0,1,1,.93-.68,5.73,5.73,0,0,0,2.21,1.49C23.76,34.89,24.45,35.31,24.51,36.25Z"/><path class="co_ingredient_chickpea_5" d="M66.87,56.87A.8.8,0,0,1,67.09,58c-.54.9-1.11,1.79-1.68,2.66a1.8,1.8,0,0,1-.5.41.71.71,0,0,1-1-.05.76.76,0,0,1,0-1c.73-.92,1.46-1.85,2.24-2.73C66.28,57,66.62,57,66.87,56.87Z"/><path class="co_ingredient_chickpea_4" d="M14.58,35.39c.19.06.5.06.6.21a.74.74,0,0,1,0,.66q-.86,1.34-1.77,2.61a3,3,0,0,1-.72.71.57.57,0,0,1-.94-.54,1.48,1.48,0,0,1,.26-.78c.64-.83,1.32-1.63,2-2.43A3.21,3.21,0,0,1,14.58,35.39Z"/><path class="co_ingredient_chickpea_4" d="M23.73,63.73a4,4,0,0,1-.13-.86c.08-.86.2-1.72.32-2.57,0-.18,0-.42.15-.52a1.14,1.14,0,0,1,.68-.36.78.78,0,0,1,.53.42c.35.7-.42,3.36-1.06,3.78A1.89,1.89,0,0,1,23.73,63.73Z"/><path class="co_ingredient_chickpea_1" d="M31.18,28.53a2.33,2.33,0,0,1-.94,0c-.84-.31-1.64-.7-2.46-1.07a.58.58,0,0,1-.27-.24c-.08-.22-.22-.53-.13-.66a1.13,1.13,0,0,1,.67-.36.88.88,0,0,1,.52.16c.72.36,1.43.73,2.14,1.11A.82.82,0,0,1,31.18,28.53Z"/><path class="co_ingredient_chickpea_5" d="M58.89,65.5c-.41.43-.8.91-1.26,1.32a3.09,3.09,0,0,1-1,.6c-.48.17-.66,0-.94-.62.48-.53,1-1.09,1.47-1.63a1.93,1.93,0,0,1,.61-.41C58.4,64.49,58.68,64.67,58.89,65.5Z"/><path class="co_ingredient_chickpea_1" d="M24.36,12.82c-1.09.49-1.75-.11-2.44-.51-.51-.3-1.12-.59-.94-1.37a.64.64,0,0,1,.93-.15C22.75,11.36,23.77,11.71,24.36,12.82Z"/><path class="co_ingredient_chickpea_4" d="M28.77,64.81c.17.55-.62,1.55-1.2,1.49a.57.57,0,0,1-.47-.82,3.69,3.69,0,0,1,.94-1A.49.49,0,0,1,28.77,64.81Z"/><path class="co_ingredient_chickpea_5" d="M53.27,36.16c-.09-.52.2-.79.66-.95a1.09,1.09,0,0,1,1.32.25C55,36.59,54.15,36.87,53.27,36.16Z"/><path class="co_ingredient_chickpea_1" d="M47.24,14.12c-.87-.49-.92-1.28-1.38-1.77.39-.48.54-.54.85-.18a4.85,4.85,0,0,1,.74,1.24C47.52,13.56,47.34,13.82,47.24,14.12Z"/><path class="co_ingredient_chickpea_5" d="M48.15,53.12c-.08.6.15,1.2-.29,1.69a1,1,0,0,1-.78-1.37C47.25,53,47.46,52.88,48.15,53.12Z"/></g></g></g></svg>