<svg width="501" height="50" viewBox="0 0 501 50" fill="none" xmlns="http://www.w3.org/2000/svg">
<mask id="path-1-inside-1_1_7" fill="white">
<path fill-rule="evenodd" clip-rule="evenodd" d="M500.603 50H0.602782C53.8905 19.8929 145.958 0 250.603 0C355.248 0 447.315 19.8929 500.603 50Z"/>
</mask>
<path fill-rule="evenodd" clip-rule="evenodd" d="M500.603 50H0.602782C53.8905 19.8929 145.958 0 250.603 0C355.248 0 447.315 19.8929 500.603 50Z" fill="#F5BF07"/>
<path d="M0.602782 50L0.110875 49.1294L-3.20006 51H0.602782V50ZM500.603 50V51H504.406L501.095 49.1294L500.603 50ZM0.602782 51H500.603V49H0.602782V51ZM1.09469 50.8706C54.1727 20.8821 146.045 1 250.603 1V-1C145.87 -1 53.6083 18.9038 0.110875 49.1294L1.09469 50.8706ZM250.603 1C355.16 1 447.033 20.8821 500.111 50.8706L501.095 49.1294C447.597 18.9038 355.336 -1 250.603 -1V1Z" fill="#F5BF07" mask="url(#path-1-inside-1_1_7)"/>
</svg>
